<svg width="16" height="16" viewBox="0 0 16 16" fill="none" xmlns="http://www.w3.org/2000/svg"><style>.fill {fill:#8B7C6D;}</style><path d="M13.164 5.85886C12.1141 4.27958 11.1916 3.74745 10.932 3.49704C10.6469 3.22083 10.4297 2.90782 10.2914 2.7571C9.98392 2.41829 9.58587 2.00007 8.93118 2.00007C8.29919 2.00007 7.8816 2.41539 7.74595 2.7742C7.70658 2.87651 7.67554 3.00172 7.64737 3.04722C7.5853 3.14982 7.30595 3.63065 7.19012 3.82136H7.71233L7.45827 4.30509C7.75457 4.23958 7.9661 4.19118 8.24832 4.19118C8.49951 4.19118 8.68 4.25118 8.75903 4.41029C8.90589 4.7065 8.90589 5.60265 9.1542 6.27738C9.38556 6.91153 9.95001 7.53205 10.5849 8.00737C10.5932 8.01288 10.6018 8.01578 10.613 8.01578C10.6441 8.01578 10.6639 7.99317 10.6639 7.97028C10.6639 7.95318 10.6582 7.94187 10.6441 7.92767C10.1135 7.39264 9.68186 6.80081 9.45051 6.15217C9.22174 5.52034 9.25853 4.6323 9.05821 4.23669C8.92543 3.97497 8.6435 3.90686 8.38369 3.90686C8.17504 3.90686 7.98018 3.94946 7.88994 3.96917L8.11842 3.57935H7.73187C7.81378 3.43444 7.89827 3.30054 7.94081 3.22083C7.97731 3.15243 7.99168 3.06722 8.0368 2.95071C8.18337 2.5777 8.50784 2.34149 8.93118 2.34149C9.46172 2.34149 9.77211 2.68581 10.0796 3.03012C10.2207 3.18953 10.4521 3.52255 10.7202 3.77006C10.9036 3.94077 11.2536 4.13148 11.7925 4.6923C12.1029 5.01662 12.4642 5.43774 12.845 6.00117C14.2081 8.01288 15.1025 9.78577 15.602 11.1688L15.5936 11.1746C14.163 10.1956 12.924 9.27074 11.9253 8.12968C11.2169 7.31874 10.6018 6.37969 10.0655 5.18153C10.0288 5.10183 9.998 5.02792 9.96409 4.95112C9.95001 4.91981 9.93592 4.91112 9.91322 4.91112C9.88505 4.91112 9.86522 4.93112 9.86522 4.95952C9.86522 4.99082 9.87931 5.05922 9.91035 5.19573C10.1954 6.4365 10.9855 7.54915 11.8293 8.474C12.6702 9.39334 13.6209 10.1843 14.4027 10.7593L15.0122 12.5177C15.0263 12.5606 15.0433 12.6061 15.0433 12.6487C15.0433 12.68 15.0346 12.7055 15.0151 12.7226C14.9982 12.7397 14.9757 12.7484 14.9249 12.7484H14.7415C14.6625 12.7484 14.6311 12.7368 14.603 12.7142C14.5748 12.6913 14.5553 12.6571 14.5409 12.6174C14.4874 12.4522 14.1656 11.5274 14.1038 11.3395C14.0923 11.3056 14.0724 11.294 14.05 11.294C14.0219 11.294 14.002 11.3169 14.002 11.3424C14.002 11.3653 14.0104 11.3908 14.0247 11.4706C14.1064 11.8917 14.2023 12.3641 14.2417 12.5435C14.259 12.6258 14.2785 12.7029 14.2785 12.7597C14.2785 12.8107 14.2673 12.8394 14.225 12.882L14.0359 13.0756C13.9908 13.1211 13.9652 13.1324 13.9287 13.1324C13.8836 13.1324 13.8468 13.1011 13.8299 13.0214C13.6155 12.0111 13.291 10.7593 13.2062 10.4118C13.1864 10.3353 13.1723 10.2924 13.1272 10.2924C13.0878 10.2924 13.0737 10.3208 13.0737 10.355C13.0737 10.3805 13.0792 10.4118 13.0821 10.4347C13.1329 10.7932 13.339 12.0995 13.5617 13.2918C13.6014 13.4968 13.6776 13.6104 13.8526 13.6104C13.9316 13.6104 14.0075 13.5791 14.0782 13.511C14.194 13.3942 14.2276 13.3629 14.3662 13.2263C14.4647 13.1295 14.5326 13.0898 14.7018 13.0898H15.1194C15.2183 13.0898 15.2718 13.0643 15.3197 13.0185C15.3649 12.9759 15.393 12.9162 15.393 12.8307C15.393 12.7426 15.3706 12.6716 15.3396 12.5832C15.2324 12.2931 14.8881 11.3111 14.7863 11.0352L14.795 11.0294C15.1476 11.2998 15.6612 11.6442 15.8871 11.6442C15.9575 11.6442 16 11.6129 16 11.5019C16 10.9784 15.1364 8.82411 13.164 5.85886" class="fill"/><path d="M3.47665 2.55213C3.53586 2.42113 3.66576 2.33012 3.82096 2.33012C4.03248 2.33012 4.20176 2.49532 4.20176 2.71443C4.20176 2.84225 4.14255 2.95354 4.04944 3.02165C4.06927 3.09585 4.08335 3.16106 4.08335 3.22366C4.08335 3.46277 3.94224 3.63059 3.68272 3.71898C3.6488 3.8639 3.58673 3.9949 3.48499 4.09171C3.31571 4.25662 3.14356 4.25662 3.14356 4.32502C3.14356 4.36212 3.16914 4.38472 3.23955 4.38472C3.55281 4.38472 3.86033 4.20851 3.89712 3.9152C4.1963 3.81289 4.37678 3.50828 4.37678 3.26656C4.37678 3.20367 4.37104 3.14976 4.34574 3.09875C4.42765 3.01875 4.52364 2.88225 4.52364 2.68023C4.52364 2.50373 4.4472 2.32461 4.31183 2.19361C4.19342 2.07681 4.02673 2 3.83216 2C3.54994 2 3.36658 2.1539 3.26225 2.30461C2.95445 2.30461 2.55669 2.64893 2.55669 3.14135H2.51444C2.48599 2.97064 2.31125 2.85645 2.16439 2.84805C2.04599 2.48953 1.77784 2.18231 1.33755 2.18231C1.28697 2.18231 1.22489 2.1852 1.17115 2.19361C1.04153 2.07391 0.897544 2 0.697228 2C0.313264 2 0 2.31041 0 2.70284C0 2.94775 0.110073 3.11556 0.319012 3.26366C0.319012 3.26366 0.316138 3.29496 0.316138 3.30916C0.316138 3.62218 0.654692 4.1117 1.15706 4.1117C1.15706 4.19112 1.25593 4.29951 1.366 4.31922V4.35922H1.32347C0.632275 4.35922 0.338842 4.69513 0.338842 4.91975C0.132778 5.00525 0 5.23566 0 5.44898C0 5.873 0.307803 6.17471 0.714184 6.17471C0.849548 6.17471 0.987787 6.1208 1.08378 6.04661C1.15419 6.07211 1.24443 6.08632 1.33755 6.08632C1.53241 6.08632 1.74968 6.0182 1.902 5.7933C1.9247 5.7962 1.94425 5.7962 1.96695 5.7962C2.21526 5.7962 2.42966 5.63099 2.54261 5.41478C2.57077 5.36087 2.58198 5.31827 2.58198 5.28667C2.58198 5.25566 2.5679 5.22987 2.53686 5.22987C2.49749 5.22987 2.49174 5.26697 2.42133 5.33247C2.26326 5.47767 2.02041 5.53158 1.7721 5.53158C1.65081 5.71099 1.50137 5.80489 1.32922 5.80489C1.20219 5.80489 1.10361 5.77069 1.00187 5.70229C0.919961 5.7933 0.818509 5.8304 0.719644 5.8304C0.496911 5.8304 0.338842 5.67389 0.338842 5.44608C0.338842 5.28667 0.440294 5.14466 0.581406 5.09046C0.606697 4.80874 0.905878 4.61804 1.27835 4.61804C1.32634 4.61804 1.37434 4.62093 1.42521 4.62673C1.48154 4.53572 1.6169 4.43892 1.80888 4.41313C1.84854 4.40762 1.8793 4.40472 1.902 4.39342C1.9247 4.38183 1.93591 4.35922 1.93591 4.33342C1.93591 4.31082 1.92729 4.29082 1.90487 4.27662C1.88504 4.26531 1.85113 4.25981 1.81176 4.25111C1.63386 4.21691 1.42233 4.10591 1.31513 3.8355C0.888922 3.8355 0.575658 3.49118 0.575658 3.10425V3.07875C0.434546 3.02165 0.338842 2.88514 0.338842 2.72284C0.338842 2.50952 0.505246 2.33881 0.716771 2.33881C0.8438 2.33881 0.953874 2.40142 1.02457 2.49532C1.08378 2.47822 1.15132 2.47243 1.21627 2.47243C1.53241 2.47243 1.87096 2.67444 1.93591 3.06716C2.34229 3.10425 2.43828 3.45147 2.46358 3.59668C2.47766 3.67058 2.48887 3.73319 2.53686 3.73319C2.58773 3.73319 2.59894 3.67609 2.6159 3.59928C2.64693 3.45437 2.70068 3.33757 2.80788 3.24656C2.80788 2.87355 3.08435 2.55213 3.47665 2.55213Z" class="fill"/><path d="M4.29776 4.78309C4.16499 4.9738 4.06928 5.06771 3.76723 5.42623C3.36947 5.90155 3.16053 6.28586 2.81335 7.13941C2.86997 7.13362 2.95188 7.12811 3.04212 7.12811C3.08724 7.12811 3.12374 7.12811 3.18324 7.13072L3.22548 7.03971C3.42034 6.61859 3.68245 6.04936 4.04945 5.61114L4.17648 5.46043C4.55441 5.0138 4.78864 4.74889 4.9355 4.13996C4.98637 3.92375 5.02862 3.73043 5.1726 3.59073C5.30222 3.46553 5.46604 3.41162 5.63244 3.41162C5.77355 3.41162 5.87817 3.44582 6.03049 3.51103C6.16872 3.57074 6.21931 3.58233 6.36617 3.58233C6.41704 3.58233 6.45354 3.57943 6.48745 3.57653L6.29001 3.84404L6.55815 4.03475C6.22218 4.13416 6.04457 4.46167 5.98508 4.61238C5.97387 4.64369 5.96841 4.66368 5.96841 4.68368C5.96841 4.70658 5.97962 4.72919 6.01353 4.72919C6.05003 4.72919 6.07819 4.70078 6.12619 4.64369C6.29001 4.44457 6.41991 4.30777 7.02345 4.11735L6.59752 3.79274L6.91912 3.31771H6.61735C6.42537 3.31771 6.29834 3.31482 6.13194 3.23801C5.90604 3.1328 5.79051 3.0873 5.59019 3.0873C5.34476 3.0873 5.12173 3.17541 4.93837 3.34612C4.72656 3.54233 4.66161 3.80434 4.58574 4.09185C4.52625 4.31357 4.45583 4.55848 4.29776 4.78309Z" class="fill"/><path d="M4.94676 6.72103C4.78582 6.94014 4.56567 7.22736 4.39639 7.53198C4.45014 7.55777 4.62804 7.65457 4.69011 7.68848C4.88468 7.39257 5.1557 7.02854 5.33331 6.75233C5.49425 6.50192 5.5592 6.39381 5.57041 6.0579C5.57329 6.00109 5.57329 5.9469 5.57875 5.89299C5.59283 5.71938 5.63824 5.54287 5.80177 5.38086C5.92305 5.25826 6.09808 5.19595 6.2731 5.19595C6.44238 5.19595 6.54096 5.24406 6.68782 5.24406C6.79214 5.24406 6.8683 5.21855 6.93613 5.19305L6.98987 5.17305L6.85997 5.48636L7.16461 5.61127C6.97004 5.73358 6.54383 6.2602 6.54383 6.88334C6.54383 7.10824 6.57774 7.31576 6.62574 7.50067C6.63149 7.52067 6.64269 7.54067 6.67373 7.54067C6.7019 7.54067 6.72173 7.52357 6.7246 7.49227L6.72748 7.42677C6.73581 7.23606 6.74989 6.93464 6.82605 6.66423C6.95308 6.2089 7.29451 5.78198 7.63594 5.57707L7.15053 5.36376L7.35946 4.84873L7.13098 4.89713C6.99274 4.92554 6.89101 4.95104 6.76972 4.95104C6.69069 4.95104 6.60045 4.93974 6.49325 4.91394C6.41134 4.89423 6.32368 4.87713 6.19981 4.87713C5.97679 4.87713 5.73682 4.96234 5.57329 5.12175C5.27411 5.40926 5.25715 5.71938 5.23732 5.99559C5.21203 6.36251 5.1442 6.45352 4.94676 6.72103Z" class="fill"/><path d="M12.1876 6.89457C12.1677 6.86907 12.1508 6.85747 12.1284 6.85747C12.0944 6.85747 12.0775 6.88037 12.0775 6.90587C12.0775 6.94587 12.1056 6.99427 12.1763 7.11397C12.3907 7.4809 12.656 7.85072 12.9834 8.19823C13.336 8.57645 13.7507 8.92918 14.1939 9.24509L14.3321 9.3419C14.352 9.35639 14.366 9.36479 14.383 9.36479C14.4112 9.36479 14.431 9.33639 14.431 9.31349C14.431 9.29929 14.4252 9.2848 14.4083 9.2706C13.9964 8.89237 13.5533 8.43125 13.1386 7.98752C12.8138 7.63741 12.481 7.26758 12.1876 6.89457Z" class="fill"/><path d="M3.10697 5.60555C3.14922 5.53454 3.27625 5.36094 3.32712 5.30674C3.10985 4.86301 2.75434 4.43899 2.59914 4.27089L2.46924 4.39899C2.61897 4.6181 2.86987 5.04212 3.10697 5.60555Z" class="fill"/><path d="M1.03858 3.03596C1.013 3.01306 1.00754 2.99886 1.00754 2.98176C1.00754 2.96205 1.02162 2.93915 1.05266 2.93915C1.06387 2.93915 1.07508 2.94205 1.08945 2.94785C1.2981 3.03306 1.476 3.13276 1.63407 3.25507C1.76656 3.35738 1.89646 3.48287 2.0232 3.63359L1.90479 3.7701C1.75822 3.6475 1.28401 3.24666 1.03858 3.03596Z" class="fill"/><path d="M3.03925 3.98923L2.88693 3.89533C2.98551 3.65912 3.10708 3.44291 3.25078 3.2806C3.35252 3.16409 3.44851 3.06989 3.55571 2.97628C3.581 2.95628 3.59508 2.93918 3.62037 2.93918C3.64882 2.93918 3.66865 2.96208 3.66865 2.98468C3.66865 2.99599 3.66291 3.01019 3.6517 3.02729C3.47955 3.2977 3.14358 3.83273 3.03925 3.98923Z" class="fill"/><path d="M1.12608 5.30957C1.08929 5.32377 1.07234 5.33247 1.05279 5.33247C1.02176 5.33247 1.00739 5.30667 1.00739 5.28667C1.00739 5.26696 1.01601 5.25566 1.03584 5.23827C1.38273 4.96525 1.68766 4.85715 2.10812 4.78585L2.1587 4.95685L1.12608 5.30957Z" class="fill"/><path d="M8.36395 3.10146C8.36395 3.00176 8.41482 2.82236 8.59818 2.82236C8.66026 2.82236 8.71946 2.83656 8.76746 2.85945C8.83529 2.89076 8.88041 2.93626 8.88041 2.98466C8.88041 3.03596 8.82954 3.08726 8.75338 3.14986C8.67434 3.21508 8.57289 3.27507 8.49098 3.27507C8.39241 3.27507 8.36395 3.18088 8.36395 3.10146Z" class="fill"/><path d="M5.49985 3.93232C5.49985 3.81001 5.57313 3.67611 5.71425 3.67611C5.77632 3.67611 5.84961 3.70161 5.90335 3.7532C5.93439 3.78161 5.94848 3.81262 5.94848 3.84421C5.94848 3.91261 5.88352 3.97782 5.80736 4.02332C5.74816 4.05752 5.68608 4.08042 5.63263 4.08042C5.54497 4.08042 5.49985 4.02593 5.49985 3.93232Z" class="fill"/><path d="M6.16299 5.68813C6.16299 5.65973 6.16587 5.62553 6.17708 5.59133C6.19978 5.51742 6.24749 5.44612 6.36618 5.44612C6.41993 5.44612 6.47884 5.46033 6.52684 5.49482C6.56938 5.52322 6.58633 5.56003 6.58633 5.59713C6.58633 5.71943 6.38314 5.86174 6.2814 5.86174C6.20812 5.86174 6.16299 5.79044 6.16299 5.68813Z" class="fill"/><path d="M5.05119 9.27928C4.67039 9.27928 4.50082 9.09727 4.50082 8.86685C4.50082 8.46254 5.20351 8.06721 5.8355 7.82231L5.99932 8.03591C5.60989 8.19213 4.82558 8.52833 4.82558 8.81845C4.82558 8.92076 4.88479 8.99496 5.1216 8.99496C5.53373 8.99496 5.9769 8.79266 6.38587 8.59065C6.41691 8.57644 6.45369 8.56224 6.48761 8.56224C6.54106 8.56224 6.57497 8.57934 6.61435 8.63615L6.68217 8.73005C6.20538 8.99496 5.60989 9.27928 5.05119 9.27928Z" class="fill"/><path d="M6.10097 9.38754C5.7285 9.59796 5.34195 9.73766 5.00052 9.73766C4.61943 9.73766 4.28088 9.57246 3.99865 9.14264C3.88025 8.96062 3.78713 8.73311 3.67418 8.5311C3.53882 8.29199 3.39196 8.16388 3.13531 8.16388C2.90108 8.16388 2.67231 8.26069 2.42975 8.36589L2.44096 8.42009C2.46079 8.5082 2.4947 8.5708 2.57632 8.5708C2.61311 8.5708 2.6499 8.55399 2.66973 8.5482C2.80509 8.5053 2.90367 8.4682 3.04219 8.4682C3.25372 8.4682 3.35517 8.5937 3.49916 8.90092L3.5529 9.01482C3.40604 9.06612 3.06174 9.09163 2.80509 9.09163H2.68381L2.70364 9.21394C2.71197 9.26524 2.7318 9.30784 2.77405 9.32784C2.82463 9.35334 2.89821 9.35624 3.02524 9.35624C3.34684 9.35624 3.58106 9.31654 3.71643 9.28205C4.06361 9.80316 4.5404 10.0023 5.00052 10.0023C5.39253 10.0023 5.79058 9.85707 6.17167 9.64665L6.10097 9.38754Z" class="fill"/><path d="M6.48462 9.51559L6.41708 9.25359C6.9982 8.93796 7.52874 8.68465 8.37541 8.60205C8.39237 8.92927 8.36967 9.34199 8.60964 9.34199C8.8295 9.34199 9.30917 8.76986 9.86241 8.05282C9.91328 8.10122 9.9949 8.15252 10.0685 8.20933L9.92736 8.39424C9.3882 9.09447 8.92837 9.6921 8.55015 9.6921C8.19751 9.6921 8.06474 9.27359 8.05928 8.96057C7.5204 9.01477 7.01228 9.19678 6.48462 9.51559Z" class="fill"/><path d="M13.9512 3.80426C13.7311 3.80426 13.669 3.68166 13.669 3.50835C13.669 3.14983 13.892 2.6348 14.0331 2.34149H13.6914C13.5138 2.68871 12.814 3.80136 12.4358 4.26248L12.6531 4.49841C12.8563 4.27089 13.0793 3.88397 13.3218 3.50255H13.367C13.367 3.52255 13.3644 3.54515 13.3644 3.56515C13.3644 3.88686 13.5279 4.12568 13.9314 4.12568C14.1797 4.12568 14.5691 4.00048 14.9362 3.87527C15.2408 3.77006 15.5201 3.66196 15.6584 3.62225V3.28083C15.5003 3.32894 15.1787 3.45415 14.8456 3.57095C14.4959 3.69326 14.1516 3.80426 13.9512 3.80426Z" class="fill"/><path d="M14.7046 4.83718C15.0432 4.69227 15.6499 4.44736 15.9999 4.31925V3.97204C15.2972 4.23404 14.064 4.74907 13.2231 5.21019C13.2458 5.23831 13.3926 5.44611 13.4093 5.47191C13.7648 5.32381 14.0838 5.227 14.3715 5.227C14.7753 5.227 15.1053 5.227 15.6585 5.096V4.83428C15.3481 4.89138 15.0179 4.95949 14.8035 4.95949C14.6765 4.95949 14.6397 4.94239 14.6397 4.89978C14.6397 4.87428 14.6566 4.85718 14.7046 4.83718" class="fill"/><path d="M2.28011 7.99876C2.43243 7.99876 2.55659 7.94746 2.67528 7.89935C2.78794 7.85356 2.90089 7.80805 3.05321 7.80805C3.41447 7.80805 3.86022 7.98456 4.25252 8.15237C4.27523 8.16106 4.30052 8.16657 4.32581 8.16657C4.38817 8.16657 4.43617 8.13817 4.46692 8.07846L4.51779 7.98456C4.08612 7.73125 3.39751 7.46084 3.03913 7.46084C2.8756 7.46084 2.7569 7.50373 2.64424 7.54894C2.51721 7.60053 2.40714 7.65444 2.29132 7.65444C2.00651 7.65444 1.27566 7.36983 1.27566 7.09391C1.27566 6.76959 2.43818 6.64438 2.56521 6.64438L2.68074 6.37948C1.83723 6.37948 0.832487 6.67829 0.832487 7.07391C0.832487 7.18782 0.897439 7.24462 0.897439 7.34983C0.897439 7.49214 0.832487 7.58894 0.832487 7.74835C0.832487 7.85356 0.894565 7.98746 0.967852 8.10426C1.04689 8.22657 1.14 8.30598 1.14 8.40858C1.14 8.48538 1.08942 8.57639 1.08942 8.7558C1.08942 9.13982 1.30669 9.37342 1.72974 9.83136L1.81453 9.92236C1.46476 10.0592 0.812657 10.3438 0.660336 10.409C0.132674 10.631 0.000183105 10.9014 0.000183105 11.3283C0.000183105 11.4932 0.000183115 11.6811 0.0113916 11.8489H0.112843C0.324655 11.8489 0.349946 11.721 0.349946 11.5987C0.349946 11.5161 0.347072 11.4222 0.347072 11.3196C0.349946 11.0837 0.358568 10.873 0.736497 10.7023C0.889105 10.6339 1.63663 10.3267 2.19274 10.0876C2.35627 10.0163 2.50859 9.95656 2.67787 9.95656C2.86698 9.95656 3.08425 10.0392 3.35527 10.2015C3.58375 10.338 3.82372 10.5229 4.01283 10.7362L4.25252 10.5513C4.04646 10.3067 3.76165 10.0876 3.47655 9.91686C3.19145 9.74615 2.93768 9.64644 2.72328 9.64644C2.63016 9.64644 2.554 9.66354 2.48905 9.68064C2.41289 9.70064 2.34219 9.72325 2.25195 9.72325C2.14762 9.72325 2.05996 9.69774 1.93293 9.54964C1.88494 9.49573 1.5803 9.14562 1.51534 9.04331C1.48431 8.99491 1.42798 8.8981 1.42798 8.7842C1.42798 8.7358 1.43631 8.67899 1.46476 8.62769C1.72687 8.8326 2.05163 8.95781 2.44651 9.00621L2.39306 8.7358C1.82573 8.58509 1.22191 8.08136 1.22191 7.75704C1.22191 7.68864 1.23887 7.64024 1.26445 7.58054C1.48431 7.78545 2.00076 7.99876 2.28011 7.99876Z" class="fill"/><path d="M6.34082 8.05008C6.69633 7.79677 7.06305 7.76837 7.35936 7.76837C7.53726 7.76837 7.74591 7.79387 7.96606 7.82227C8.14395 7.84517 8.30461 7.86227 8.49659 7.86227C8.88314 7.86227 9.27257 7.71996 9.44184 7.64577C9.48984 7.70576 9.57175 7.78547 9.6367 7.84227C9.55479 7.89357 9.03575 8.17789 8.50521 8.17789C8.27098 8.17789 8.04796 8.14978 7.85598 8.12399C7.6867 8.10138 7.50334 8.08138 7.32545 8.08138C7.13088 8.08138 6.73858 8.13819 6.49602 8.25499L6.34082 8.05008Z" class="fill"/><path d="M11.5809 9.06599C11.1575 9.96533 10.5141 10.6198 9.8539 10.9983C9.54064 11.1774 9.25841 11.2942 8.64913 11.2942H7.33112C6.86008 11.2942 6.56377 11.3568 6.33242 11.4165C6.08382 11.482 5.92604 11.5472 5.67485 11.5472C5.30238 11.5472 4.95808 11.3623 4.79168 11.1861L5.10207 10.9386L4.94687 10.7305C4.85663 10.7963 3.75331 11.6185 3.52166 11.8034L3.50758 11.795C3.51333 11.7382 3.51333 11.6869 3.51333 11.6356C3.51333 11.0096 3.22536 10.8586 2.78823 10.6824L2.49192 10.8586C3.09287 11.0609 3.24231 11.2229 3.24231 11.6753C3.24231 12.0341 3.11528 12.1762 2.93192 12.2845C2.74282 12.3956 2.50859 12.4466 2.30281 12.4466C2.21515 12.4466 2.17578 12.4637 2.14474 12.495C2.11083 12.5292 2.09387 12.5805 2.09387 12.6515V12.7512H2.16457C2.5425 12.7512 2.89255 12.6915 3.27623 12.3869L4.52641 11.4023C4.70402 11.6072 5.15294 11.8918 5.68318 11.8918C5.98237 11.8918 6.17435 11.8176 6.45082 11.7466C6.66522 11.6924 6.87416 11.644 7.33112 11.644H8.65459C9.33199 11.644 9.65933 11.5017 10.0203 11.2971C10.8049 10.8531 11.4737 10.1018 11.8519 9.23931C11.753 9.17699 11.6599 9.1199 11.5809 9.06599Z" class="fill"/><path d="M9.45605 10.136C9.79748 9.58386 10.1021 9.09434 10.8499 8.69611C10.7709 8.64771 10.6582 8.5738 10.5987 8.53381C10.3082 8.66191 10.0205 8.91783 9.77506 9.17694C9.21061 9.76877 9.2612 10.1102 8.66599 10.3409C8.51626 10.3977 8.3329 10.4603 8.09867 10.5145C7.96043 10.0847 7.61354 9.65777 7.24654 9.65777C6.99248 9.65777 6.69904 9.79138 6.36049 9.94238C5.96273 10.1189 5.5986 10.3209 5.48306 10.3977L5.63826 10.6084C5.75667 10.5426 6.09809 10.3719 6.43952 10.2241C6.73583 10.096 7.00397 9.99078 7.18446 9.99078C7.47502 9.99078 7.66413 10.3238 7.76874 10.591C7.38765 10.6823 6.76112 10.7049 6.5723 10.7049C6.48464 10.7049 6.45361 10.7191 6.42257 10.7449C6.3944 10.7704 6.3717 10.8159 6.35761 10.8785L6.3352 10.9753H6.5381C7.59371 10.9753 8.58983 10.8075 9.23016 10.4148C9.32069 10.4406 9.39972 10.4574 9.50117 10.4574C9.86789 10.4574 10.2461 10.2554 10.4832 10.0705C10.5677 10.005 10.5875 9.94499 10.5875 9.87978C10.5875 9.84848 10.5847 9.82007 10.5818 9.79138L10.5706 9.68066C10.232 9.95079 9.9498 10.1531 9.60004 10.1531C9.53796 10.1531 9.49284 10.1473 9.45605 10.136Z" class="fill"/><path d="M7.4751 6.43646L7.33945 6.69846H8.78161L8.67441 6.43646H7.4751Z" class="fill"/></svg>
