<svg width="0" height="0" xmlns="http://www.w3.org/2000/svg">
	<symbol width="16" height="16" viewBox="0 0 16 16" id="close-filter-form-icon">
		<path d="M0 14.2394L6.30116 8L0 1.76062L1.69884 0L8.03089 6.27027L14.2703 0L16 1.76062L9.76062 8L16 14.2394L14.2703 15.9382L8.03089 9.69884L1.69884 15.9382L0 14.2394Z"/>
	</symbol>

	<symbol width="10" height="12" viewBox="0 0 10 12" id="hero-cta-arrow-icon">
		<path d="M5.70711 11.0404C5.31658 11.4309 4.68342 11.4309 4.29289 11.0404L0.292894 7.04042C-0.097631 6.64989 -0.097631 6.01673 0.292894 5.62621C0.683418 5.23568 1.31658 5.23568 1.70711 5.62621L4 7.9191L4 0.999979C4 0.447695 4.44772 -2.05126e-05 5 -2.04643e-05C5.55229 -2.0416e-05 6 0.447695 6 0.99998L6 7.9191L8.29289 5.62621C8.68342 5.23568 9.31658 5.23568 9.70711 5.62621C10.0976 6.01673 10.0976 6.6499 9.70711 7.04042L5.70711 11.0404Z"/>
	</symbol>

	<symbol width="20" height="18" viewBox="0 0 20 18" id="open-filter-form-icon">
		<path d="M19 2.08991H1C0.734784 2.08991 0.48043 1.98265 0.292893 1.79172C0.105357 1.60078 0 1.34183 0 1.07181C0 0.801794 0.105357 0.542836 0.292893 0.351905C0.48043 0.160975 0.734784 0.0537109 1 0.0537109H19C19.2652 0.0537109 19.5196 0.160975 19.7071 0.351905C19.8946 0.542836 20 0.801794 20 1.07181C20 1.34183 19.8946 1.60078 19.7071 1.79172C19.5196 1.98265 19.2652 2.08991 19 2.08991Z"/>
		<path d="M19 6.05372H1C0.734784 6.05372 0.48043 5.94645 0.292893 5.75552C0.105357 5.56459 0 5.30563 0 5.03562C0 4.7656 0.105357 4.50664 0.292893 4.31571C0.48043 4.12478 0.734784 4.01752 1 4.01752H19C19.2652 4.01752 19.5196 4.12478 19.7071 4.31571C19.8946 4.50664 20 4.7656 20 5.03562C20 5.30563 19.8946 5.56459 19.7071 5.75552C19.5196 5.94645 19.2652 6.05372 19 6.05372Z"/>
		<path d="M19 10.0179H1C0.734784 10.0179 0.48043 9.91064 0.292893 9.71971C0.105357 9.52878 0 9.26982 0 8.9998C0 8.72979 0.105357 8.47083 0.292893 8.2799C0.48043 8.08897 0.734784 7.9817 1 7.9817H19C19.2652 7.9817 19.5196 8.08897 19.7071 8.2799C19.8946 8.47083 20 8.72979 20 8.9998C20 9.26982 19.8946 9.52878 19.7071 9.71971C19.5196 9.91064 19.2652 10.0179 19 10.0179Z"/>
		<path d="M19 13.9821H1C0.734784 13.9821 0.48043 13.8748 0.292893 13.6839C0.105357 13.493 0 13.234 0 12.964C0 12.694 0.105357 12.435 0.292893 12.2441C0.48043 12.0532 0.734784 11.9459 1 11.9459H19C19.2652 11.9459 19.5196 12.0532 19.7071 12.2441C19.8946 12.435 20 12.694 20 12.964C20 13.234 19.8946 13.493 19.7071 13.6839C19.5196 13.8748 19.2652 13.9821 19 13.9821Z"/>
		<path d="M19 17.9463H11C10.7348 17.9463 10.4804 17.839 10.2929 17.6481C10.1054 17.4572 10 17.1982 10 16.9282C10 16.6582 10.1054 16.3992 10.2929 16.2083C10.4804 16.0174 10.7348 15.9101 11 15.9101H19C19.2652 15.9101 19.5196 16.0174 19.7071 16.2083C19.8946 16.3992 20 16.6582 20 16.9282C20 17.1982 19.8946 17.4572 19.7071 17.6481C19.5196 17.839 19.2652 17.9463 19 17.9463Z"/>
	</symbol>

	<symbol width="16" height="16" viewBox="0 0 16 16" id="warning-icon">
		<path d="M8 0C12.4184 0 16 3.5816 16 8C16 12.4184 12.4184 16 8 16C3.5816 16 0 12.4184 0 8C0 3.5816 3.5816 0 8 0ZM8 10.4C7.78783 10.4 7.58434 10.4843 7.43431 10.6343C7.28429 10.7843 7.2 10.9878 7.2 11.2C7.2 11.4122 7.28429 11.6157 7.43431 11.7657C7.58434 11.9157 7.78783 12 8 12C8.21217 12 8.41566 11.9157 8.56569 11.7657C8.71571 11.6157 8.8 11.4122 8.8 11.2C8.8 10.9878 8.71571 10.7843 8.56569 10.6343C8.41566 10.4843 8.21217 10.4 8 10.4ZM8 3.2C7.80405 3.20003 7.61493 3.27196 7.4685 3.40217C7.32207 3.53238 7.22853 3.7118 7.2056 3.9064L7.2 4V8.8C7.20023 9.0039 7.2783 9.20003 7.41828 9.3483C7.55825 9.49656 7.74956 9.58579 7.95312 9.59774C8.15667 9.60969 8.3571 9.54346 8.51347 9.41259C8.66983 9.28172 8.77032 9.09608 8.7944 8.8936L8.8 8.8V4C8.8 3.78783 8.71571 3.58434 8.56569 3.43431C8.41566 3.28429 8.21217 3.2 8 3.2Z"/>
	</symbol>

	<symbol width="16" height="10" viewBox="0 0 16 10" id="filter-form-icon">
		<path d="M15.2 2.0136H0.8C0.587827 2.0136 0.384344 1.92779 0.234315 1.77505C0.0842855 1.6223 0 1.41514 0 1.19912C0 0.98311 0.0842855 0.775944 0.234315 0.623199C0.384344 0.470454 0.587827 0.384644 0.8 0.384644H15.2C15.4122 0.384644 15.6157 0.470454 15.7657 0.623199C15.9157 0.775944 16 0.98311 16 1.19912C16 1.41514 15.9157 1.6223 15.7657 1.77505C15.6157 1.92779 15.4122 2.0136 15.2 2.0136ZM12.5333 5.81451H3.46667C3.25449 5.81451 3.05101 5.7287 2.90098 5.57595C2.75095 5.42321 2.66667 5.21604 2.66667 5.00003C2.66667 4.78401 2.75095 4.57685 2.90098 4.4241C3.05101 4.27136 3.25449 4.18555 3.46667 4.18555H12.5333C12.7455 4.18555 12.949 4.27136 13.099 4.4241C13.249 4.57685 13.3333 4.78401 13.3333 5.00003C13.3333 5.21604 13.249 5.42321 13.099 5.57595C12.949 5.7287 12.7455 5.81451 12.5333 5.81451ZM9.33333 9.61541H6.66667C6.45449 9.61541 6.25101 9.5296 6.10098 9.37686C5.95095 9.22411 5.86667 9.01695 5.86667 8.80093C5.86667 8.58492 5.95095 8.37775 6.10098 8.22501C6.25101 8.07226 6.45449 7.98645 6.66667 7.98645H9.33333C9.54551 7.98645 9.74899 8.07226 9.89902 8.22501C10.049 8.37775 10.1333 8.58492 10.1333 8.80093C10.1333 9.01695 10.049 9.22411 9.89902 9.37686C9.74899 9.5296 9.54551 9.61541 9.33333 9.61541Z"/>
	</symbol>

	<symbol width="16" height="14" viewBox="0 0 16 14" id="clear-form-icon">
		<path d="M0 0.131714H14.3928L9.10426 7.62346V13.8682H5.28856V7.62346L0 0.131714ZM2.94572 1.65799L6.81484 7.13963V12.342H7.57798V7.13963L11.4471 1.65799H2.94572ZM11.6837 8.11798L13.3015 9.7366L14.9209 8.11798L16 9.19706L14.3814 10.8157L16 12.4351L14.9209 13.5141L13.3015 11.8948L11.6837 13.5141L10.6038 12.4343L12.2225 10.8164L10.6038 9.19706L11.6837 8.11798Z"/>
	</symbol>
</svg>