<svg width="0" height="0" xmlns="http://www.w3.org/2000/svg">
    <symbol width="129" height="45" viewBox="0 0 129 45" id="nbs-logo">
        <path d="M50.0907 15.0057C46.0958 8.99635 42.5854 6.97153 41.5979 6.01868C40.513 4.96767 39.6863 3.7766 39.1603 3.20313C37.9901 1.9139 36.4755 0.322501 33.9843 0.322501C31.5795 0.322501 29.9905 1.90287 29.4744 3.26819C29.3246 3.65749 29.2064 4.13392 29.0993 4.30707C28.8631 4.69747 27.8001 6.52709 27.3594 7.25276H29.3464L28.3797 9.0934C29.5072 8.84415 30.3121 8.65998 31.386 8.65998C32.3418 8.65998 33.0285 8.88827 33.3293 9.49373C33.8881 10.6208 33.8881 14.0308 34.8329 16.5982C35.7133 19.0113 37.8611 21.3724 40.2768 23.1811C40.3085 23.202 40.3413 23.2131 40.384 23.2131C40.5021 23.2131 40.5776 23.1271 40.5776 23.0399C40.5776 22.9749 40.5557 22.9319 40.5021 22.8778C38.4833 20.842 36.8408 18.59 35.9604 16.1218C35.0899 13.7176 35.2299 10.3385 34.4677 8.83313C33.9625 7.83726 32.8896 7.5781 31.901 7.5781C31.1071 7.5781 30.3656 7.74021 30.0223 7.81521L30.8917 6.33188H29.4208C29.7325 5.78046 30.054 5.27095 30.2158 4.96767C30.3547 4.7074 30.4094 4.38317 30.5811 3.93982C31.1388 2.52047 32.3735 1.62165 33.9843 1.62165C36.0031 1.62165 37.1842 2.93182 38.3543 4.242C38.8912 4.84856 39.7716 6.11573 40.7919 7.05755C41.4896 7.70713 42.8216 8.4328 44.8721 10.5668C46.0531 11.8009 47.4278 13.4033 48.8768 15.5472C54.0637 23.202 57.4669 29.9481 59.3676 35.2109L59.3359 35.2329C53.892 31.5075 49.1775 27.9884 45.3773 23.6465C42.6816 20.5607 40.3413 16.9875 38.3007 12.4284C38.1607 12.1251 38.0437 11.8439 37.9147 11.5516C37.8611 11.4325 37.8075 11.3994 37.7211 11.3994C37.6139 11.3994 37.5385 11.4755 37.5385 11.5836C37.5385 11.7027 37.5921 11.963 37.7102 12.4824C38.795 17.2037 41.8013 21.4375 45.0121 24.9567C48.2119 28.4549 51.8295 31.4645 54.804 33.6526L57.1235 40.3435C57.1771 40.5067 57.2416 40.6799 57.2416 40.842C57.2416 40.9611 57.2088 41.0581 57.1345 41.1232C57.0699 41.1883 56.9846 41.2214 56.7911 41.2214H56.0934C55.7926 41.2214 55.6734 41.1773 55.5663 41.0912C55.4591 41.0041 55.3847 40.874 55.33 40.7229C55.1266 40.0943 53.9018 36.5751 53.6667 35.8605C53.623 35.7314 53.5475 35.6873 53.4622 35.6873C53.355 35.6873 53.2796 35.7744 53.2796 35.8715C53.2796 35.9586 53.3113 36.0557 53.366 36.3589C53.6765 37.9614 54.0418 39.759 54.1916 40.4417C54.2572 40.7549 54.3316 41.0482 54.3316 41.2644C54.3316 41.4585 54.289 41.5677 54.1282 41.7298L53.4086 42.4665C53.2369 42.6396 53.1396 42.6826 53.0007 42.6826C52.829 42.6826 52.689 42.5635 52.6245 42.2602C51.8087 38.4157 50.574 33.6526 50.2514 32.3303C50.176 32.0391 50.1224 31.8759 49.9507 31.8759C49.8009 31.8759 49.7473 31.984 49.7473 32.1141C49.7473 32.2112 49.7681 32.3303 49.779 32.4174C49.9726 33.7816 50.7567 38.7521 51.6042 43.2892C51.7551 44.0689 52.0449 44.5012 52.7109 44.5012C53.0116 44.5012 53.3003 44.3821 53.5694 44.1229C54.0101 43.6785 54.138 43.5594 54.6651 43.04C55.0402 42.6716 55.2983 42.5205 55.9425 42.5205H57.5314C57.9076 42.5205 58.111 42.4235 58.2937 42.2492C58.4654 42.0871 58.5725 41.8599 58.5725 41.5346C58.5725 41.1993 58.4872 40.9291 58.3691 40.5928C57.9612 39.4888 56.6511 35.7524 56.264 34.7025L56.2968 34.6804C57.6386 35.7094 59.5928 37.0195 60.4524 37.0195C60.7203 37.0195 60.8822 36.9004 60.8822 36.478C60.8822 34.4863 57.596 26.2889 50.0907 15.0057"/>
        <path d="M13.2291 2.42314C13.4544 1.92465 13.9487 1.57836 14.5392 1.57836C15.3441 1.57836 15.9882 2.20698 15.9882 3.04073C15.9882 3.52708 15.763 3.95057 15.4086 4.20974C15.4841 4.49207 15.5377 4.74021 15.5377 4.97842C15.5377 5.88827 15.0007 6.52681 14.0132 6.86318C13.8842 7.4146 13.648 7.91308 13.2608 8.28143C12.6167 8.90895 11.9617 8.90895 11.9617 9.16922C11.9617 9.31038 12.059 9.3964 12.3269 9.3964C13.5189 9.3964 14.6891 8.72588 14.829 7.6098C15.9675 7.2205 16.6542 6.06141 16.6542 5.14164C16.6542 4.90233 16.6324 4.6972 16.5361 4.5031C16.8478 4.19871 17.2131 3.67928 17.2131 2.9106C17.2131 2.23897 16.9222 1.55741 16.4071 1.05892C15.9565 0.614479 15.3222 0.322227 14.5819 0.322227C13.508 0.322227 12.8103 0.907835 12.4133 1.48131C11.2421 1.48131 9.72855 2.79149 9.72855 4.66522H9.56779C9.45953 4.01564 8.79463 3.58112 8.2358 3.54914C7.78525 2.18493 6.76493 1.01591 5.08955 1.01591C4.89708 1.01591 4.66087 1.02694 4.45637 1.05892C3.96316 0.603451 3.41527 0.322227 2.65304 0.322227C1.19201 0.322227 0 1.50337 0 2.99662C0 3.92852 0.418843 4.56706 1.21388 5.13061C1.21388 5.13061 1.20295 5.24972 1.20295 5.30376C1.20295 6.49483 2.49119 8.35753 4.40278 8.35753C4.40278 8.65971 4.77898 9.07217 5.19782 9.14716V9.29935H5.03597C2.40589 9.29935 1.28934 10.5775 1.28934 11.4322C0.505237 11.7576 0 12.6343 0 13.446C0 15.0595 1.17123 16.2076 2.71756 16.2076C3.23264 16.2076 3.75866 16.0024 4.12392 15.7201C4.39185 15.8171 4.73523 15.8712 5.08955 15.8712C5.83101 15.8712 6.65776 15.612 7.23736 14.7562C7.32375 14.7672 7.39812 14.7672 7.48451 14.7672C8.42937 14.7672 9.24518 14.1386 9.67496 13.3159C9.78214 13.1108 9.82479 12.9487 9.82479 12.8284C9.82479 12.7104 9.7712 12.6123 9.65309 12.6123C9.50327 12.6123 9.4814 12.7535 9.21347 13.0027C8.612 13.5552 7.68792 13.7603 6.74306 13.7603C6.28156 14.443 5.7129 14.8003 5.05784 14.8003C4.57447 14.8003 4.19937 14.6702 3.81224 14.4099C3.50057 14.7562 3.11454 14.8974 2.73834 14.8974C1.89081 14.8974 1.28934 14.3018 1.28934 13.435C1.28934 12.8284 1.67538 12.2881 2.21233 12.0818C2.30856 11.0099 3.44699 10.2842 4.86428 10.2842C5.0469 10.2842 5.22953 10.2952 5.4231 10.3173C5.63744 9.97098 6.15252 9.60263 6.88304 9.50448C7.03395 9.48353 7.15097 9.4725 7.23736 9.42949C7.32375 9.38538 7.3664 9.29935 7.3664 9.2012C7.3664 9.11518 7.33359 9.03908 7.2483 8.98504C7.17284 8.94203 7.04379 8.92108 6.89397 8.88799C6.21704 8.75786 5.41216 8.33547 5.00425 7.30652C3.38246 7.30652 2.19046 5.99634 2.19046 4.52405V4.427C1.6535 4.20974 1.28934 3.6903 1.28934 3.07271C1.28934 2.26102 1.92253 1.61145 2.72741 1.61145C3.21077 1.61145 3.62962 1.84966 3.89864 2.20698C4.12392 2.14191 4.38091 2.11986 4.62806 2.11986C5.83101 2.11986 7.11925 2.88854 7.3664 4.38289C8.91273 4.52405 9.27799 5.84526 9.37423 6.39778C9.42781 6.679 9.47046 6.91722 9.65309 6.91722C9.84666 6.91722 9.88931 6.69996 9.95383 6.4077C10.0719 5.85628 10.2764 5.41184 10.6843 5.06555C10.6843 3.64619 11.7364 2.42314 13.2291 2.42314Z"/>
        <path d="M16.3535 10.9122C15.8482 11.6378 15.4841 11.9952 14.3347 13.3594C12.8212 15.168 12.0261 16.6304 10.7051 19.8783C10.9205 19.8562 11.2322 19.8353 11.5756 19.8353C11.7473 19.8353 11.8862 19.8353 12.1125 19.8452L12.2733 19.4989C13.0147 17.8965 14.0121 15.7305 15.4086 14.063L15.892 13.4895C17.33 11.79 18.2213 10.782 18.7801 8.46496C18.9737 7.64224 19.1344 6.90665 19.6823 6.37508C20.1755 5.89865 20.7989 5.69352 21.4321 5.69352C21.969 5.69352 22.3671 5.82365 22.9467 6.07179C23.4727 6.29898 23.6652 6.34309 24.224 6.34309C24.4176 6.34309 24.5565 6.33206 24.6855 6.32104L23.9342 7.33896L24.9545 8.06463C23.6761 8.4429 23.0003 9.68911 22.7739 10.2626C22.7313 10.3817 22.7105 10.4578 22.7105 10.5339C22.7105 10.621 22.7531 10.707 22.8822 10.707C23.0211 10.707 23.1282 10.599 23.3109 10.3817C23.9342 9.62405 24.4285 9.10351 26.725 8.37894L25.1043 7.14376L26.3281 5.3362H25.1798C24.4493 5.3362 23.9659 5.32517 23.3327 5.03292C22.4732 4.63259 22.0335 4.45944 21.2713 4.45944C20.3374 4.45944 19.4888 4.7947 18.7911 5.44428C17.9851 6.1909 17.7379 7.18787 17.4492 8.28189C17.2229 9.12556 16.9549 10.0575 16.3535 10.9122Z"/>
        <path d="M18.823 18.2863C18.2106 19.1201 17.3729 20.213 16.7288 21.3721C16.9333 21.4702 17.6102 21.8386 17.8464 21.9676C18.5868 20.8416 19.618 19.4565 20.2939 18.4054C20.9063 17.4526 21.1534 17.0412 21.1961 15.763C21.207 15.5469 21.207 15.3406 21.2278 15.1355C21.2814 14.4749 21.4541 13.8033 22.0764 13.1868C22.5379 12.7203 23.2039 12.4832 23.8699 12.4832C24.514 12.4832 24.8891 12.6663 25.4479 12.6663C25.8449 12.6663 26.1347 12.5692 26.3928 12.4722L26.5973 12.3961L26.103 13.5882L27.2622 14.0636C26.5218 14.529 24.9 16.5328 24.9 18.9039C24.9 19.7597 25.0291 20.5494 25.2117 21.253C25.2336 21.3291 25.2762 21.4052 25.3943 21.4052C25.5015 21.4052 25.577 21.3401 25.5879 21.221L25.5988 20.9718C25.6306 20.2461 25.6841 19.0991 25.9739 18.0702C26.4573 16.3376 27.7565 14.7131 29.0557 13.9334L27.2086 13.1217L28.0036 11.162L27.1342 11.3462C26.6082 11.4542 26.2211 11.5513 25.7596 11.5513C25.4589 11.5513 25.1155 11.5083 24.7076 11.4101C24.3959 11.3351 24.0624 11.2701 23.591 11.2701C22.7424 11.2701 21.8292 11.5943 21.207 12.2009C20.0686 13.2949 20.0041 14.4749 19.9286 15.5259C19.8324 16.9221 19.5743 17.2684 18.823 18.2863Z"/>
        <path d="M46.3754 18.9467C46.2999 18.8496 46.2354 18.8055 46.1501 18.8055C46.0211 18.8055 45.9565 18.8926 45.9565 18.9897C45.9565 19.1419 46.0637 19.3261 46.3327 19.7815C47.1486 21.1777 48.1579 22.5849 49.4035 23.9073C50.7454 25.3465 52.3234 26.6886 54.0097 27.8907L54.5357 28.2591C54.6112 28.3142 54.6648 28.3462 54.7293 28.3462C54.8365 28.3462 54.9119 28.2381 54.9119 28.151C54.9119 28.0969 54.8901 28.0418 54.8255 27.9878C53.2584 26.5486 51.5721 24.7939 49.9941 23.1055C48.7583 21.7733 47.4919 20.366 46.3754 18.9467Z"/>
        <path d="M11.8222 14.0418C11.9829 13.7716 12.4663 13.111 12.6599 12.9048C11.8331 11.2164 10.4803 9.6029 9.88981 8.96326L9.39551 9.45071C9.96527 10.2845 10.92 11.8979 11.8222 14.0418Z"/>
        <path d="M3.9516 4.26412C3.85427 4.177 3.8335 4.12296 3.8335 4.05789C3.8335 3.9829 3.88708 3.89577 4.00519 3.89577C4.04784 3.89577 4.09049 3.9068 4.14517 3.92886C4.93911 4.25309 5.61604 4.63247 6.21752 5.09787C6.72166 5.48717 7.21596 5.9647 7.69823 6.53818L7.24767 7.05762C6.68995 6.59112 4.88553 5.06589 3.9516 4.26412Z"/>
        <path d="M11.5647 7.89149L10.9851 7.53417C11.3602 6.63536 11.8228 5.81264 12.3696 5.19505C12.7567 4.75171 13.122 4.39328 13.5299 4.03706C13.6261 3.96097 13.6797 3.8959 13.7759 3.8959C13.8842 3.8959 13.9597 3.98303 13.9597 4.06905C13.9597 4.11206 13.9378 4.1661 13.8951 4.23116C13.2401 5.26012 11.9617 7.29596 11.5647 7.89149Z"/>
        <path d="M4.28466 12.9156C4.14468 12.9696 4.08016 13.0027 4.00579 13.0027C3.88769 13.0027 3.83301 12.9045 3.83301 12.8284C3.83301 12.7534 3.86582 12.7104 3.94127 12.6443C5.26123 11.6054 6.42153 11.194 8.02145 10.9227L8.21392 11.5734L4.28466 12.9156Z"/>
        <path d="M31.8259 4.51344C31.8259 4.13406 32.0195 3.4514 32.7172 3.4514C32.9534 3.4514 33.1787 3.50544 33.3613 3.59257C33.6194 3.71167 33.7911 3.88482 33.7911 4.06899C33.7911 4.2642 33.5975 4.4594 33.3077 4.69761C33.007 4.94575 32.621 5.17404 32.3093 5.17404C31.9342 5.17404 31.8259 4.81562 31.8259 4.51344Z"/>
        <path d="M20.9277 7.67488C20.9277 7.20948 21.2066 6.69997 21.7436 6.69997C21.9798 6.69997 22.2586 6.79702 22.4631 6.99333C22.5812 7.1014 22.6348 7.21941 22.6348 7.33962C22.6348 7.59989 22.3877 7.84803 22.0979 8.02117C21.8726 8.15131 21.6364 8.23843 21.433 8.23843C21.0994 8.23843 20.9277 8.0311 20.9277 7.67488Z"/>
        <path d="M23.4507 14.3561C23.4507 14.248 23.4616 14.1178 23.5043 13.9877C23.5907 13.7065 23.7722 13.4352 24.2238 13.4352C24.4284 13.4352 24.6525 13.4892 24.8352 13.6205C24.997 13.7285 25.0615 13.8686 25.0615 14.0098C25.0615 14.4752 24.2884 15.0167 23.9012 15.0167C23.6224 15.0167 23.4507 14.7454 23.4507 14.3561Z"/>
        <path d="M19.2202 28.0208C17.7712 28.0208 17.126 27.3282 17.126 26.4514C17.126 24.913 19.7998 23.4087 22.2046 22.4768L22.8279 23.2896C21.3461 23.884 18.3617 25.1633 18.3617 26.2673C18.3617 26.6566 18.587 26.9389 19.4881 26.9389C21.0563 26.9389 22.7426 26.1691 24.2988 25.4004C24.4169 25.3464 24.5569 25.2924 24.6859 25.2924C24.8894 25.2924 25.0184 25.3574 25.1682 25.5736L25.4263 25.9309C23.612 26.9389 21.3461 28.0208 19.2202 28.0208Z"/>
        <path d="M23.2148 28.4327C21.7976 29.2334 20.3267 29.765 19.0275 29.765C17.5774 29.765 16.2892 29.1363 15.2153 27.5008C14.7647 26.8082 14.4104 25.9425 13.9806 25.1738C13.4655 24.264 12.9067 23.7765 11.9301 23.7765C11.0388 23.7765 10.1683 24.1449 9.24536 24.5452L9.28801 24.7514C9.36347 25.0867 9.49251 25.3249 9.80309 25.3249C9.94307 25.3249 10.083 25.261 10.1585 25.2389C10.6736 25.0757 11.0487 24.9345 11.5758 24.9345C12.3807 24.9345 12.7667 25.412 13.3146 26.5811L13.5191 27.0145C12.9603 27.2097 11.6502 27.3067 10.6736 27.3067H10.2121L10.2875 27.7721C10.3193 27.9673 10.3947 28.1294 10.5555 28.2055C10.7479 28.3026 11.0279 28.3136 11.5113 28.3136C12.735 28.3136 13.6263 28.1625 14.1414 28.0313C15.4624 30.0142 17.2767 30.7719 19.0275 30.7719C20.5191 30.7719 22.0338 30.2193 23.4839 29.4187L23.2148 28.4327Z"/>
        <path d="M24.675 28.9201L24.418 27.9231C26.6292 26.7221 28.648 25.7582 31.8697 25.4439C31.9342 26.689 31.8478 28.2595 32.7609 28.2595C33.5975 28.2595 35.4227 26.0825 37.5279 23.354C37.7215 23.5382 38.032 23.7334 38.312 23.9496L37.775 24.6532C35.7235 27.3176 33.9737 29.5917 32.5346 29.5917C31.1927 29.5917 30.6875 27.9992 30.6667 26.8081C28.6162 27.0144 26.6828 27.7069 24.675 28.9201Z"/>
        <path d="M53.0863 7.18767C52.2486 7.18767 52.0124 6.72117 52.0124 6.06167C52.0124 4.69746 52.861 2.73771 53.398 1.62163H52.0977C51.4219 2.94284 48.759 7.17665 47.3198 8.93127L48.1466 9.82898C48.9197 8.96325 49.7684 7.49096 50.6914 6.03962H50.863C50.863 6.11571 50.8532 6.20173 50.8532 6.27783C50.8532 7.50198 51.4755 8.41073 53.0108 8.41073C53.9557 8.41073 55.4375 7.9343 56.834 7.45787C57.9932 7.05754 59.0562 6.64618 59.5822 6.49509V5.19594C58.9807 5.37901 57.757 5.85544 56.4895 6.29989C55.1587 6.76529 53.8485 7.18767 53.0863 7.18767Z"/>
        <path d="M55.9529 11.1181C57.2411 10.5667 59.5497 9.63478 60.8817 9.14733V7.82612C58.2078 8.82309 53.5153 10.7828 50.3154 12.5375C50.4018 12.6444 50.9606 13.4352 51.0241 13.5333C52.3768 12.9698 53.5907 12.6014 54.6854 12.6014C56.2219 12.6014 57.4773 12.6014 59.5825 12.1029V11.1071C58.4014 11.3243 57.1449 11.5835 56.3291 11.5835C55.8457 11.5835 55.7057 11.5184 55.7057 11.3563C55.7057 11.2593 55.7702 11.1942 55.9529 11.1181"/>
        <path d="M8.67591 23.1484C9.25552 23.1484 9.72795 22.9531 10.1796 22.7701C10.6083 22.5958 11.0381 22.4227 11.6177 22.4227C12.9923 22.4227 14.6885 23.0943 16.1812 23.7329C16.2676 23.7659 16.3638 23.7869 16.4601 23.7869C16.6974 23.7869 16.88 23.6788 16.997 23.4516L17.1906 23.0943C15.548 22.1304 12.9278 21.1015 11.5641 21.1015C10.9418 21.1015 10.4902 21.2647 10.0615 21.4367C9.57812 21.633 9.15928 21.8382 8.71856 21.8382C7.63482 21.8382 4.85383 20.7552 4.85383 19.7053C4.85383 18.4712 9.27739 17.9948 9.76075 17.9948L10.2004 16.9868C6.9907 16.9868 3.16752 18.1238 3.16752 19.6292C3.16752 20.0626 3.41467 20.2788 3.41467 20.6791C3.41467 21.2206 3.16752 21.5889 3.16752 22.1955C3.16752 22.5958 3.40373 23.1053 3.6826 23.5498C3.98333 24.0152 4.33765 24.3174 4.33765 24.7078C4.33765 25 4.14518 25.3463 4.14518 26.029C4.14518 27.4902 4.97194 28.3791 6.5817 30.1216L6.9043 30.4679C5.57341 30.9884 3.09206 32.0714 2.51246 32.3196C0.504632 33.1644 0.000488281 34.1933 0.000488281 35.8178C0.000488281 36.4453 0.000488318 37.1599 0.0431382 37.7985H0.429175C1.23515 37.7985 1.33138 37.3121 1.33138 36.8467C1.33138 36.5324 1.32045 36.1751 1.32045 35.7847C1.33138 34.887 1.36419 34.0852 2.80226 33.4357C3.38295 33.1754 6.22737 32.0064 8.34346 31.0965C8.96572 30.8252 9.54532 30.598 10.1894 30.598C10.909 30.598 11.7358 30.9124 12.767 31.5299C13.6364 32.0494 14.5496 32.753 15.2692 33.5647L16.1812 32.8611C15.3971 31.9303 14.3134 31.0965 13.2285 30.447C12.1437 29.7974 11.178 29.418 10.3622 29.418C10.0079 29.418 9.7181 29.4831 9.47095 29.5481C9.18115 29.6242 8.91213 29.7103 8.56874 29.7103C8.17177 29.7103 7.83823 29.6132 7.35486 29.0497C7.17223 28.8445 6.01303 27.5123 5.76588 27.123C5.64777 26.9388 5.43343 26.5705 5.43343 26.137C5.43343 25.9529 5.46514 25.7367 5.57341 25.5415C6.57076 26.3212 7.80651 26.7977 9.3091 26.9818L9.10569 25.9529C6.94695 25.3794 4.64933 23.4627 4.64933 22.2286C4.64933 21.9683 4.71385 21.7841 4.81118 21.557C5.64777 22.3367 7.61295 23.1484 8.67591 23.1484Z"/>
        <path d="M24.1277 23.3436C25.4805 22.3798 26.8759 22.2717 28.0034 22.2717C28.6803 22.2717 29.4742 22.3687 30.3119 22.4768C30.9888 22.5639 31.6002 22.629 32.3307 22.629C33.8016 22.629 35.2834 22.0875 35.9275 21.8052C36.1101 22.0335 36.4218 22.3367 36.6689 22.5529C36.3573 22.7481 34.3822 23.83 32.3635 23.83C31.4722 23.83 30.6236 23.723 29.8931 23.6249C29.249 23.5388 28.5512 23.4628 27.8743 23.4628C27.134 23.4628 25.6412 23.6789 24.7182 24.1234L24.1277 23.3436Z"/>
        <path d="M44.0668 27.2092C42.456 30.6313 40.0074 33.1215 37.4955 34.5618C36.3035 35.2434 35.2296 35.6878 32.9112 35.6878H27.896C26.1036 35.6878 24.9761 35.926 24.0958 36.1532C23.1498 36.4025 22.5494 36.6506 21.5936 36.6506C20.1763 36.6506 18.8662 35.947 18.233 35.2765L19.4141 34.3346L18.8236 33.5428C18.4802 33.7931 14.2819 36.9219 13.4005 37.6255L13.3469 37.5935C13.3688 37.3774 13.3688 37.1822 13.3688 36.987C13.3688 34.6048 12.273 34.0303 10.6096 33.3597L9.48215 34.0303C11.7688 34.8 12.3375 35.4165 12.3375 37.1381C12.3375 38.5034 11.8541 39.0438 11.1564 39.4562C10.4368 39.8786 9.54557 40.0727 8.76256 40.0727C8.42902 40.0727 8.2792 40.1378 8.16109 40.2569C8.03205 40.387 7.96753 40.5822 7.96753 40.8524V41.2318H8.23655C9.67462 41.2318 11.0066 41.0046 12.4665 39.8455L17.2236 36.0992C17.8995 36.8789 19.6077 37.9619 21.6253 37.9619C22.7638 37.9619 23.4943 37.6796 24.5463 37.4094C25.3621 37.2031 26.1572 37.019 27.896 37.019H32.9319C35.5095 37.019 36.7551 36.4775 38.1287 35.6989C41.1142 34.0093 43.6589 31.1507 45.0981 27.8687C44.7219 27.6316 44.3676 27.4143 44.0668 27.2092Z"/>
        <path d="M35.9815 31.2808C37.2807 29.1799 38.4399 27.3172 41.2854 25.8019C40.9847 25.6177 40.556 25.3365 40.3296 25.1843C39.224 25.6717 38.1293 26.6455 37.1954 27.6315C35.0476 29.8835 35.2401 31.1826 32.9752 32.0605C32.4055 32.2766 31.7078 32.5149 30.8165 32.7211C30.2905 31.0856 28.9705 29.4611 27.574 29.4611C26.6073 29.4611 25.4907 29.9695 24.2025 30.5441C22.689 31.2157 21.3034 31.9844 20.8638 32.2766L21.4543 33.0784C21.9049 32.8281 23.204 32.1785 24.5032 31.616C25.6307 31.1286 26.651 30.7283 27.3378 30.7283C28.4434 30.7283 29.163 31.9954 29.5611 33.0122C28.111 33.3596 25.727 33.4457 25.0085 33.4457C24.6749 33.4457 24.5568 33.4997 24.4387 33.5979C24.3315 33.6949 24.2451 33.868 24.1916 34.1063L24.1063 34.4746H24.8783C28.8951 34.4746 32.6854 33.8361 35.122 32.3417C35.4664 32.4399 35.7672 32.5038 36.1532 32.5038C37.5486 32.5038 38.9878 31.7352 39.89 31.0315C40.2115 30.7823 40.287 30.554 40.287 30.3059C40.287 30.1868 40.276 30.0787 40.2651 29.9695L40.2224 29.5482C38.9342 30.5761 37.8603 31.3458 36.5294 31.3458C36.2932 31.3458 36.1215 31.3238 35.9815 31.2808Z"/>
        <path d="M28.4439 17.2035L27.9277 18.2004H33.4154L33.0074 17.2035H28.4439Z"/>
        <path d="M79.1164 5.32366C79.7742 5.47685 80.2788 5.7652 80.6302 6.18871C80.9816 6.60321 81.1573 7.12584 81.1573 7.75661C81.1573 8.63066 80.8375 9.29296 80.1977 9.74351C79.5579 10.185 78.6118 10.4058 77.3593 10.4058H74.5479V0.606461H77.6431C78.6884 0.606461 79.4813 0.818217 80.022 1.24173C80.5626 1.65623 80.833 2.26897 80.833 3.07995C80.833 3.63863 80.6843 4.10719 80.3869 4.48565C80.0986 4.86411 79.6751 5.14345 79.1164 5.32366ZM75.4264 1.33634V4.99927H77.5079C78.3009 4.99927 78.9001 4.84609 79.3056 4.53972C79.7111 4.22433 79.9138 3.76478 79.9138 3.16105C79.9138 2.55732 79.7111 2.10227 79.3056 1.7959C78.9001 1.48953 78.3009 1.33634 77.5079 1.33634H75.4264ZM77.3593 9.67593C78.3414 9.67593 79.0623 9.51824 79.5219 9.20285C79.9814 8.87846 80.2112 8.37385 80.2112 7.68902C80.2112 7.02222 79.9814 6.53112 79.5219 6.21574C79.0623 5.89135 78.3414 5.72915 77.3593 5.72915H75.4264V9.67593H77.3593Z"/>
        <path d="M88.5448 3.58006V10.4058H87.8284L87.7473 9.18934C87.513 9.63087 87.1841 9.97329 86.7606 10.2166C86.3371 10.4509 85.864 10.568 85.3414 10.568C84.6205 10.568 84.0528 10.3382 83.6383 9.87867C83.2238 9.41912 83.0166 8.78385 83.0166 7.97287V3.58006H83.8411V7.79715C83.8411 8.47297 83.9807 8.98659 84.2601 9.33802C84.5484 9.68944 84.9674 9.86515 85.5171 9.86515C86.1839 9.86515 86.7156 9.61285 87.112 9.10824C87.5175 8.59462 87.7203 7.9188 87.7203 7.08079V3.58006H88.5448Z"/>
        <path d="M93.1018 10.568C92.0115 10.568 91.0788 10.2166 90.3039 9.51373L90.8851 8.87846C91.5159 9.53626 92.2683 9.86515 93.1423 9.86515C93.674 9.86515 94.102 9.75702 94.4264 9.54076C94.7508 9.31549 94.913 9.01813 94.913 8.64868C94.913 8.38737 94.8364 8.18012 94.6832 8.02693C94.539 7.86474 94.3453 7.73408 94.102 7.63496C93.8587 7.53584 93.5028 7.4232 93.0342 7.29705C92.4755 7.14386 92.0295 6.99068 91.6961 6.83749C91.3627 6.68431 91.1059 6.49058 90.9256 6.25629C90.7544 6.02201 90.6688 5.72465 90.6688 5.36421C90.6688 4.76949 90.8851 4.29642 91.3176 3.945C91.7592 3.59357 92.3449 3.41786 93.0747 3.41786C93.5433 3.41786 93.9984 3.49445 94.4399 3.64764C94.8814 3.80082 95.2689 4.02159 95.6023 4.30994L95.0752 4.93169C94.4804 4.39104 93.8272 4.12071 93.1153 4.12071C92.6377 4.12071 92.2502 4.22433 91.9529 4.43159C91.6645 4.63884 91.5204 4.91367 91.5204 5.25608C91.5204 5.50839 91.6015 5.71564 91.7637 5.87783C91.9259 6.03102 92.1241 6.15267 92.3584 6.24278C92.5927 6.32387 92.9396 6.432 93.3991 6.56717C93.9758 6.72936 94.4264 6.88705 94.7508 7.04024C95.0752 7.18441 95.323 7.37815 95.4942 7.62144C95.6744 7.85573 95.7645 8.1621 95.7645 8.54055C95.7645 9.16231 95.5257 9.6579 95.0481 10.0274C94.5706 10.3878 93.9218 10.568 93.1018 10.568Z"/>
        <path d="M97.9815 2.06623C97.8103 2.06623 97.6706 2.01216 97.5625 1.90403C97.4544 1.78689 97.4003 1.64722 97.4003 1.48502C97.4003 1.31382 97.4544 1.17865 97.5625 1.07953C97.6706 0.971402 97.8103 0.917336 97.9815 0.917336C98.1617 0.917336 98.3104 0.971402 98.4275 1.07953C98.5447 1.17865 98.6032 1.31382 98.6032 1.48502C98.6032 1.64722 98.5402 1.78689 98.414 1.90403C98.2969 2.01216 98.1527 2.06623 97.9815 2.06623ZM97.5895 3.58006H98.414V10.4058H97.5895V3.58006Z"/>
        <path d="M103.948 3.41786C104.687 3.41786 105.264 3.64764 105.678 4.10719C106.093 4.56675 106.3 5.20202 106.3 6.013V10.4058H105.476V6.18871C105.476 5.51289 105.331 4.99927 105.043 4.64785C104.755 4.29642 104.331 4.12071 103.773 4.12071C103.097 4.12071 102.556 4.37752 102.151 4.89114C101.745 5.39575 101.542 6.06706 101.542 6.90508V10.4058H100.718V3.58006H101.434L101.515 4.81004C101.759 4.36851 102.092 4.0261 102.515 3.7828C102.939 3.53951 103.417 3.41786 103.948 3.41786Z"/>
        <path d="M114.14 6.70233C114.14 6.85552 114.136 6.97266 114.127 7.05376H108.95C108.959 7.92781 109.18 8.61715 109.612 9.12176C110.054 9.61736 110.64 9.86515 111.369 9.86515C111.802 9.86515 112.198 9.77054 112.559 9.58131C112.928 9.39208 113.253 9.11275 113.532 8.7433L114.1 9.22989C113.802 9.6534 113.415 9.9823 112.937 10.2166C112.46 10.4509 111.937 10.568 111.369 10.568C110.721 10.568 110.148 10.4193 109.653 10.122C109.157 9.8156 108.774 9.39208 108.504 8.85143C108.234 8.30177 108.098 7.671 108.098 6.95914C108.098 6.25629 108.229 5.63905 108.49 5.1074C108.752 4.56675 109.121 4.15225 109.599 3.8639C110.076 3.56654 110.631 3.41786 111.261 3.41786C112.144 3.41786 112.843 3.71522 113.356 4.30994C113.879 4.89565 114.14 5.69311 114.14 6.70233ZM113.302 6.35091C113.284 5.64806 113.095 5.1029 112.735 4.71543C112.374 4.31895 111.879 4.12071 111.248 4.12071C110.617 4.12071 110.103 4.31444 109.707 4.70191C109.319 5.08938 109.081 5.63905 108.991 6.35091H113.302Z"/>
        <path d="M118.221 10.568C117.13 10.568 116.198 10.2166 115.423 9.51373L116.004 8.87846C116.635 9.53626 117.387 9.86515 118.261 9.86515C118.793 9.86515 119.221 9.75702 119.545 9.54076C119.87 9.31549 120.032 9.01813 120.032 8.64868C120.032 8.38737 119.955 8.18012 119.802 8.02693C119.658 7.86474 119.464 7.73408 119.221 7.63496C118.977 7.53584 118.622 7.4232 118.153 7.29705C117.594 7.14386 117.148 6.99068 116.815 6.83749C116.481 6.68431 116.225 6.49058 116.044 6.25629C115.873 6.02201 115.788 5.72465 115.788 5.36421C115.788 4.76949 116.004 4.29642 116.436 3.945C116.878 3.59357 117.464 3.41786 118.193 3.41786C118.662 3.41786 119.117 3.49445 119.559 3.64764C120 3.80082 120.388 4.02159 120.721 4.30994L120.194 4.93169C119.599 4.39104 118.946 4.12071 118.234 4.12071C117.756 4.12071 117.369 4.22433 117.072 4.43159C116.783 4.63884 116.639 4.91367 116.639 5.25608C116.639 5.50839 116.72 5.71564 116.882 5.87783C117.045 6.03102 117.243 6.15267 117.477 6.24278C117.711 6.32387 118.058 6.432 118.518 6.56717C119.095 6.72936 119.545 6.88705 119.87 7.04024C120.194 7.18441 120.442 7.37815 120.613 7.62144C120.793 7.85573 120.883 8.1621 120.883 8.54055C120.883 9.16231 120.644 9.6579 120.167 10.0274C119.689 10.3878 119.041 10.568 118.221 10.568Z"/>
        <path d="M124.965 10.568C123.875 10.568 122.943 10.2166 122.168 9.51373L122.749 8.87846C123.38 9.53626 124.132 9.86515 125.006 9.86515C125.538 9.86515 125.966 9.75702 126.29 9.54076C126.614 9.31549 126.777 9.01813 126.777 8.64868C126.777 8.38737 126.7 8.18012 126.547 8.02693C126.403 7.86474 126.209 7.73408 125.966 7.63496C125.722 7.53584 125.366 7.4232 124.898 7.29705C124.339 7.14386 123.893 6.99068 123.56 6.83749C123.226 6.68431 122.97 6.49058 122.789 6.25629C122.618 6.02201 122.533 5.72465 122.533 5.36421C122.533 4.76949 122.749 4.29642 123.181 3.945C123.623 3.59357 124.209 3.41786 124.938 3.41786C125.407 3.41786 125.862 3.49445 126.304 3.64764C126.745 3.80082 127.133 4.02159 127.466 4.30994L126.939 4.93169C126.344 4.39104 125.691 4.12071 124.979 4.12071C124.501 4.12071 124.114 4.22433 123.817 4.43159C123.528 4.63884 123.384 4.91367 123.384 5.25608C123.384 5.50839 123.465 5.71564 123.627 5.87783C123.79 6.03102 123.988 6.15267 124.222 6.24278C124.456 6.32387 124.803 6.432 125.263 6.56717C125.84 6.72936 126.29 6.88705 126.614 7.04024C126.939 7.18441 127.187 7.37815 127.358 7.62144C127.538 7.85573 127.628 8.1621 127.628 8.54055C127.628 9.16231 127.389 9.6579 126.912 10.0274C126.434 10.3878 125.785 10.568 124.965 10.568Z"/>
        <path d="M77.4807 23.8332C76.7959 23.8332 76.1381 23.7115 75.5073 23.4682C74.8856 23.2159 74.3404 22.842 73.8718 22.3464L74.4801 21.6841C75.3091 22.6032 76.3048 23.0628 77.4672 23.0628C78.2421 23.0628 78.8729 22.8915 79.3595 22.5491C79.8551 22.2067 80.1029 21.7291 80.1029 21.1164C80.1029 20.7019 79.9857 20.3685 79.7514 20.1162C79.5172 19.8549 79.2288 19.6566 78.8864 19.5215C78.544 19.3863 78.0754 19.2331 77.4807 19.0619C76.8229 18.8727 76.2777 18.6835 75.8452 18.4942C75.4127 18.296 75.0523 18.0212 74.7639 17.6697C74.4756 17.3183 74.3314 16.8723 74.3314 16.3316C74.3314 15.809 74.4665 15.3494 74.7369 14.9529C75.0072 14.5565 75.3812 14.2501 75.8587 14.0338C76.3453 13.8176 76.895 13.7094 77.5077 13.7094C78.7422 13.7094 79.837 14.1239 80.7922 14.9529L80.211 15.6288C79.8506 15.2773 79.4406 14.998 78.981 14.7908C78.5214 14.5835 78.0304 14.4799 77.5077 14.4799C76.8409 14.4799 76.2913 14.6421 75.8587 14.9665C75.4352 15.2818 75.2235 15.7189 75.2235 16.2775C75.2235 16.674 75.3406 16.9984 75.5749 17.2507C75.8182 17.503 76.111 17.6968 76.4534 17.8319C76.7959 17.9671 77.2644 18.1158 77.8591 18.278C78.5169 18.4582 79.0621 18.6474 79.4946 18.8457C79.9362 19.0439 80.2966 19.3232 80.5759 19.6837C80.8553 20.0351 80.9949 20.4856 80.9949 21.0353C80.9949 21.612 80.8463 22.1121 80.5489 22.5356C80.2515 22.9501 79.837 23.27 79.3054 23.4953C78.7828 23.7205 78.1745 23.8332 77.4807 23.8332Z"/>
        <path d="M88.4801 19.9675C88.4801 20.1207 88.4756 20.2378 88.4666 20.3189H83.2899C83.2989 21.193 83.5196 21.8823 83.9522 22.3869C84.3937 22.8825 84.9794 23.1303 85.7093 23.1303C86.1418 23.1303 86.5383 23.0357 86.8987 22.8465C87.2682 22.6573 87.5926 22.3779 87.8719 22.0085L88.4396 22.4951C88.1422 22.9186 87.7548 23.2475 87.2772 23.4818C86.7996 23.716 86.277 23.8332 85.7093 23.8332C85.0605 23.8332 84.4883 23.6845 83.9927 23.3871C83.4971 23.0808 83.1142 22.6573 82.8438 22.1166C82.5735 21.5669 82.4383 20.9362 82.4383 20.2243C82.4383 19.5215 82.569 18.9042 82.8303 18.3726C83.0916 17.8319 83.4611 17.4174 83.9386 17.1291C84.4162 16.8317 84.9704 16.683 85.6012 16.683C86.4842 16.683 87.1826 16.9804 87.6962 17.5751C88.2188 18.1608 88.4801 18.9583 88.4801 19.9675ZM87.6421 19.6161C87.6241 18.9132 87.4349 18.3681 87.0744 17.9806C86.714 17.5841 86.2184 17.3859 85.5876 17.3859C84.9569 17.3859 84.4433 17.5796 84.0468 17.9671C83.6593 18.3546 83.4205 18.9042 83.3304 19.6161H87.6421Z"/>
        <path d="M93.047 16.683C93.2993 16.683 93.4885 16.7191 93.6147 16.7912V17.5751C93.4074 17.5211 93.2047 17.494 93.0064 17.494C92.4387 17.494 91.9837 17.7193 91.6413 18.1698C91.2989 18.6114 91.1277 19.1971 91.1277 19.927V23.671H90.3032V16.8452H91.0195L91.1006 18.0076C91.3169 17.5841 91.5962 17.2597 91.9386 17.0345C92.281 16.8002 92.6505 16.683 93.047 16.683Z"/>
        <path d="M99.4233 16.8452H100.288L97.5445 23.671H96.7336L94.0033 16.8452H94.9089L97.1661 22.7248L99.4233 16.8452Z"/>
        <path d="M102.034 15.3314C101.862 15.3314 101.723 15.2773 101.615 15.1692C101.506 15.0521 101.452 14.9124 101.452 14.7502C101.452 14.579 101.506 14.4438 101.615 14.3447C101.723 14.2366 101.862 14.1825 102.034 14.1825C102.214 14.1825 102.362 14.2366 102.48 14.3447C102.597 14.4438 102.655 14.579 102.655 14.7502C102.655 14.9124 102.592 15.0521 102.466 15.1692C102.349 15.2773 102.205 15.3314 102.034 15.3314ZM101.642 16.8452H102.466V23.671H101.642V16.8452Z"/>
        <path d="M107.635 23.8332C106.969 23.8332 106.383 23.68 105.878 23.3736C105.374 23.0673 104.982 22.6437 104.702 22.1031C104.432 21.5624 104.297 20.9452 104.297 20.2514C104.297 19.5485 104.436 18.9268 104.716 18.3861C104.995 17.8454 105.387 17.4264 105.892 17.1291C106.396 16.8317 106.973 16.683 107.622 16.683C108.171 16.683 108.667 16.8002 109.109 17.0345C109.55 17.2597 109.911 17.5841 110.19 18.0076L109.595 18.4807C109.082 17.7508 108.424 17.3859 107.622 17.3859C107.135 17.3859 106.707 17.503 106.338 17.7373C105.968 17.9716 105.68 18.305 105.473 18.7375C105.274 19.161 105.175 19.6521 105.175 20.2108C105.175 20.7785 105.279 21.2831 105.486 21.7246C105.693 22.1662 105.982 22.5131 106.351 22.7654C106.73 23.0087 107.162 23.1303 107.649 23.1303C108.451 23.1303 109.109 22.7654 109.622 22.0355L110.217 22.5086C109.938 22.9411 109.577 23.27 109.136 23.4953C108.694 23.7205 108.194 23.8332 107.635 23.8332Z"/>
        <path d="M117.308 19.9675C117.308 20.1207 117.303 20.2378 117.294 20.3189H112.118C112.127 21.193 112.347 21.8823 112.78 22.3869C113.222 22.8825 113.807 23.1303 114.537 23.1303C114.97 23.1303 115.366 23.0357 115.727 22.8465C116.096 22.6573 116.42 22.3779 116.7 22.0085L117.267 22.4951C116.97 22.9186 116.583 23.2475 116.105 23.4818C115.627 23.716 115.105 23.8332 114.537 23.8332C113.888 23.8332 113.316 23.6845 112.821 23.3871C112.325 23.0808 111.942 22.6573 111.672 22.1166C111.401 21.5669 111.266 20.9362 111.266 20.2243C111.266 19.5215 111.397 18.9042 111.658 18.3726C111.919 17.8319 112.289 17.4174 112.766 17.1291C113.244 16.8317 113.798 16.683 114.429 16.683C115.312 16.683 116.01 16.9804 116.524 17.5751C117.047 18.1608 117.308 18.9583 117.308 19.9675ZM116.47 19.6161C116.452 18.9132 116.263 18.3681 115.902 17.9806C115.542 17.5841 115.046 17.3859 114.415 17.3859C113.785 17.3859 113.271 17.5796 112.875 17.9671C112.487 18.3546 112.248 18.9042 112.158 19.6161H116.47Z"/>
        <path d="M121.388 23.8332C120.298 23.8332 119.365 23.4818 118.59 22.7789L119.172 22.1436C119.802 22.8014 120.555 23.1303 121.429 23.1303C121.96 23.1303 122.388 23.0222 122.713 22.8059C123.037 22.5807 123.199 22.2833 123.199 21.9139C123.199 21.6525 123.123 21.4453 122.97 21.2921C122.825 21.1299 122.632 20.9993 122.388 20.9001C122.145 20.801 121.789 20.6884 121.321 20.5622C120.762 20.409 120.316 20.2559 119.983 20.1027C119.649 19.9495 119.392 19.7558 119.212 19.5215C119.041 19.2872 118.955 18.9898 118.955 18.6294C118.955 18.0347 119.172 17.5616 119.604 17.2102C120.046 16.8588 120.631 16.683 121.361 16.683C121.83 16.683 122.285 16.7596 122.726 16.9128C123.168 17.066 123.555 17.2868 123.889 17.5751L123.362 18.1969C122.767 17.6562 122.114 17.3859 121.402 17.3859C120.924 17.3859 120.537 17.4895 120.239 17.6968C119.951 17.904 119.807 18.1788 119.807 18.5213C119.807 18.7736 119.888 18.9808 120.05 19.143C120.212 19.2962 120.411 19.4178 120.645 19.508C120.879 19.5891 121.226 19.6972 121.686 19.8323C122.262 19.9945 122.713 20.1522 123.037 20.3054C123.362 20.4496 123.609 20.6433 123.781 20.8866C123.961 21.1209 124.051 21.4273 124.051 21.8057C124.051 22.4275 123.812 22.9231 123.335 23.2925C122.857 23.653 122.208 23.8332 121.388 23.8332Z"/>
        <path d="M74.8974 36.7044H77.3299V37.084H74.4404V31.987H74.8974V36.7044Z"/>
        <path d="M81.7602 37.084L81.2048 35.7061H78.6246L78.0692 37.084H77.6052L79.7003 31.987H80.1783L82.2593 37.084H81.7602ZM78.7793 35.3264H81.0571L79.9182 32.5002L78.7793 35.3264Z"/>
        <path d="M85.6071 31.987V32.3666H83.9831V37.084H83.5261V32.3666H81.9091V31.987H85.6071Z"/>
        <path d="M89.4085 37.084L88.8531 35.7061H86.2729L85.7175 37.084H85.2535L87.3486 31.987H87.8266L89.9076 37.084H89.4085ZM86.4276 35.3264H88.7054L87.5665 32.5002L86.4276 35.3264Z"/>
        <path d="M95.2042 31.987H95.851V37.084H95.4011V32.5776L93.4747 37.084H93.0388L91.1477 32.6197V37.084H90.7188V31.987H91.3656L93.2779 36.5075L95.2042 31.987Z"/>
    </symbol>

    <symbol width="58" height="45" viewBox="0 0 58 45" id="ims-logo">
        <path d="M8.76763 22.5065C8.65982 22.4165 8.59791 22.2992 8.5819 22.1544C8.03796 17.2454 9.10428 12.7731 11.7809 8.73758C12.9796 6.9308 14.4627 5.35627 16.23 4.01397C16.7185 3.64313 17.2268 3.29538 17.7547 2.97074C20.6266 1.20586 23.7541 0.226699 27.1372 0.0332694C27.7539 -0.00184353 28.3699 -0.00646309 28.9853 0.0194096C32.3537 0.160477 35.4568 1.08573 38.2948 2.79518C40.6763 4.22988 42.6612 6.06438 44.2492 8.29867C45.6735 10.3038 46.6877 12.5165 47.2921 14.9369C47.3617 15.2159 47.3965 15.3764 47.3965 15.4183C47.3965 15.5692 47.329 15.6853 47.1941 15.7666C47.183 15.7734 47.0675 15.8224 46.8476 15.9136C44.9435 16.7039 43.003 17.392 41.0262 17.9778C37.3702 19.0608 33.6673 19.9445 29.9176 20.6289C29.3386 20.7342 28.7324 20.842 28.0991 20.9523C23.6361 21.7266 19.1417 22.2385 14.6158 22.488C12.7074 22.5933 10.8143 22.6207 8.93672 22.5702C8.87481 22.5693 8.81475 22.5462 8.76763 22.5065ZM11.9232 9.96931C9.76835 13.5588 8.89699 17.4878 9.30911 21.7562C9.31373 21.7977 9.34791 21.8292 9.39042 21.8301C13.3563 21.8683 17.3109 21.6456 21.254 21.162C21.7326 21.1029 22.3437 21.0259 23.0872 20.931C26.9441 20.4376 30.7665 19.7529 34.5544 18.8769C35.3552 18.6915 35.9549 18.5513 36.3535 18.4565C39.8105 17.631 43.1974 16.5557 46.514 15.2307C46.5473 15.2178 46.5658 15.1817 46.5575 15.1466C45.6365 11.5275 43.8328 8.45021 41.1464 5.91468C40.6985 5.4921 40.2297 5.09292 39.74 4.71715C36.8743 2.5192 33.6347 1.23358 30.0211 0.860271C29.3971 0.795589 28.7823 0.763865 28.1768 0.765097C26.4402 0.767561 24.7443 1.0035 23.0891 1.4729C18.8915 2.66181 15.5121 4.98234 12.9507 8.4345C12.5823 8.93101 12.2398 9.44261 11.9232 9.96931Z"/>
        <path d="M29.6408 7.34507C29.3346 7.75102 29.017 8.14804 28.6881 8.53613C28.5858 8.65687 28.4981 8.72987 28.4247 8.75513C28.3015 8.79763 28.1771 8.77053 28.0514 8.67381C27.9646 8.60728 27.8796 8.53798 27.7964 8.46591C27.6942 8.37658 27.6338 8.28973 27.6153 8.20533C27.5882 8.07843 27.6233 7.96262 27.7206 7.8579C27.789 7.78336 27.8254 7.74363 27.8297 7.7387C28.4833 6.92433 29.1292 6.13552 29.7674 5.37227C29.8025 5.33162 29.8089 5.2734 29.784 5.22628C29.5986 4.86283 29.4969 4.51016 29.4791 4.16827C29.4612 3.81529 29.54 3.47001 29.7156 3.13244C29.9706 2.64086 30.376 2.31468 30.9316 2.15389C31.3622 2.02946 31.7796 2.04517 32.1837 2.20102C32.5521 2.3427 32.8644 2.58541 33.1206 2.92915C33.4841 3.41704 33.5956 3.94866 33.4551 4.52402C33.3135 5.10369 33.0048 5.54106 32.5293 5.83613C32.026 6.14845 31.4389 6.2039 30.7681 6.00246C30.7413 5.99507 30.7126 6.00338 30.696 6.02556C30.5254 6.24979 30.3495 6.4694 30.1684 6.68439C29.9731 6.91663 29.7972 7.13685 29.6408 7.34507ZM29.9226 3.60923C29.7439 4.10266 29.8265 4.60564 30.1702 5.11817C30.2657 5.26047 30.2441 5.40276 30.1055 5.54506C30.0769 5.57463 30.0787 5.62083 30.1092 5.64209L30.3245 5.79548C30.3439 5.80934 30.3744 5.80102 30.3901 5.77607C30.5053 5.60051 30.6532 5.5463 30.8337 5.61344C31.2501 5.76806 31.636 5.78285 31.9915 5.6578C32.4831 5.48531 32.8216 5.17792 33.007 4.73562C33.1086 4.49414 33.1499 4.2425 33.1308 3.98069C33.1105 3.70472 33.0279 3.45523 32.8832 3.23223C32.6885 2.93285 32.4042 2.70923 32.0303 2.56139C31.5615 2.37659 31.1192 2.4117 30.7034 2.66673C30.327 2.89712 30.0667 3.21129 29.9226 3.60923ZM30.1222 6.15463C30.1305 6.14383 30.1286 6.12812 30.1184 6.11956L29.8375 5.89374C29.8265 5.88511 29.8108 5.88695 29.8024 5.89756L28.0099 8.12708C28.0015 8.13788 28.0034 8.15359 28.0137 8.16215L28.2945 8.38797C28.3055 8.39661 28.3213 8.39476 28.3296 8.38415L30.1222 6.15463Z"/><path d="M33.0059 4.09159C33.0059 4.92599 32.3295 5.60237 31.4952 5.60237C30.6608 5.60237 29.9844 4.92599 29.9844 4.09159C29.9844 3.2572 30.6608 2.58081 31.4952 2.58081C32.3295 2.58081 33.0059 3.2572 33.0059 4.09159ZM32.6308 4.09067C32.6308 3.46326 32.1226 2.95504 31.4952 2.95504C30.8677 2.95504 30.3595 3.46326 30.3595 4.09067C30.3595 4.71808 30.8677 5.22629 31.4952 5.22629C32.1226 5.22629 32.6308 4.71808 32.6308 4.09067Z"/>
        <path d="M19.9356 12.308L21.7716 12.3071C21.7994 12.3071 21.8243 12.2895 21.8335 12.2627C21.8976 12.0871 21.9992 11.9458 22.1385 11.8386C22.2635 11.7425 22.4188 11.6861 22.6042 11.6695C23.0403 11.6301 23.3335 11.8127 23.4838 12.2174C23.5125 12.2951 23.591 12.3422 23.6733 12.3302C23.8224 12.3074 23.9265 12.3243 23.9856 12.381C24.0626 12.4543 24.0644 12.5328 23.9911 12.6166C23.9338 12.6825 23.8319 12.7007 23.6853 12.6711C23.6012 12.6536 23.518 12.7044 23.4949 12.7866C23.4241 13.0367 23.2729 13.2123 23.0412 13.3133C22.8324 13.4039 22.6193 13.4153 22.4018 13.3475C22.1197 13.2594 21.9259 13.0583 21.8206 12.7441C21.8114 12.7164 21.7883 12.6979 21.7615 12.6979L19.9476 12.697C19.9208 12.697 19.8968 12.7164 19.8894 12.7451C19.8198 13.0019 19.7006 13.1716 19.5318 13.2542C18.9829 13.5209 18.5554 13.3977 18.2492 12.8846C18.1753 12.7601 18.0888 12.6927 17.9896 12.6822C17.8553 12.6681 17.7521 12.6145 17.68 12.5214C17.6283 12.4555 17.6012 12.352 17.5987 12.211C17.5963 12.0859 17.5953 11.9606 17.596 11.8349C17.596 11.6864 17.6172 11.578 17.6597 11.5096C17.7164 11.4191 17.8017 11.3575 17.9157 11.3248C17.9416 11.3174 17.9582 11.2925 17.9536 11.2675L17.1709 6.66405C17.1626 6.61785 17.1219 6.58366 17.0739 6.58274L16.124 6.57904C16.0944 6.57904 16.0676 6.56333 16.0538 6.53838C15.9324 6.33325 16.0002 6.22791 16.2571 6.22237C16.5109 6.21682 16.765 6.21405 17.0194 6.21405C17.1906 6.21405 17.3221 6.25594 17.4139 6.33972C17.4805 6.40009 17.5297 6.51528 17.5618 6.6853C17.5883 6.8276 17.6077 6.97113 17.62 7.1159C17.6246 7.16764 17.668 7.20738 17.7198 7.20738C19.7933 7.20738 21.8767 7.20738 23.9699 7.20738C24.1307 7.20738 24.2499 7.23356 24.3275 7.28592C24.4556 7.37339 24.5067 7.50122 24.4809 7.66939C24.3417 8.57801 24.2034 9.48664 24.066 10.3953C24.0333 10.6096 23.9101 10.7338 23.6964 10.7676C21.8101 11.0683 19.9251 11.3747 18.0413 11.687C18.0099 11.6926 17.9868 11.7148 17.9859 11.7406L17.9767 12.2267C17.9757 12.2535 17.9942 12.2803 18.0229 12.296C18.1251 12.3502 18.1987 12.3172 18.2437 12.1971C18.2887 12.0776 18.3629 11.9713 18.4664 11.8783C18.5563 11.7976 18.6681 11.7403 18.8018 11.7065C19.3026 11.5789 19.6593 11.7647 19.8718 12.2636C19.8829 12.2904 19.9079 12.308 19.9356 12.308ZM23.9043 9.06374C23.9788 8.57894 24.0444 8.10368 24.1011 7.63797C24.1048 7.60563 24.0798 7.57699 24.0475 7.57699H17.7567C17.7318 7.57699 17.7133 7.59916 17.717 7.62411L18.3222 11.2112C18.3259 11.237 18.3509 11.2546 18.3768 11.2509L23.5901 10.4045C23.6419 10.3962 23.6834 10.3555 23.6927 10.3038C23.7771 9.84485 23.8476 9.4315 23.9043 9.06374ZM19.5364 12.5261C19.5364 12.2544 19.3165 12.0345 19.0448 12.0345C18.7732 12.0345 18.5533 12.2544 18.5533 12.5261C18.5533 12.7977 18.7732 13.0176 19.0448 13.0176C19.3165 13.0176 19.5364 12.7977 19.5364 12.5261ZM23.1595 12.5261C23.1595 12.2553 22.9396 12.0354 22.6689 12.0354C22.3981 12.0354 22.1782 12.2553 22.1782 12.5261C22.1782 12.7968 22.3981 13.0167 22.6689 13.0167C22.9396 13.0167 23.1595 12.7968 23.1595 12.5261Z"/>
        <path d="M22.219 9.2162C22.219 10.0598 21.5343 10.7445 20.6907 10.7445C19.8471 10.7445 19.1624 10.0598 19.1624 9.2162C19.1624 8.37257 19.8471 7.68787 20.6907 7.68787C21.5343 7.68787 22.219 8.37257 22.219 9.2162ZM20.3838 8.34542C20.4098 8.36425 20.4569 8.343 20.4878 8.29894C20.5188 8.25429 20.5234 8.20347 20.4967 8.18534C20.4708 8.16651 20.4236 8.18776 20.3927 8.23182C20.3617 8.27647 20.3571 8.32729 20.3838 8.34542ZM20.979 8.3199C21.024 8.28047 21.0116 8.24012 20.942 8.19885C20.9171 8.18407 20.8857 8.19146 20.8718 8.21548C20.8478 8.25799 20.857 8.29372 20.8995 8.32267C20.9245 8.3393 20.9568 8.33838 20.979 8.3199ZM19.5671 8.86877C19.5366 8.92513 19.5458 8.99444 19.5902 9.03971C19.6321 9.08345 19.6838 9.07329 19.7454 9.00922C19.8058 8.94639 19.8289 8.83088 19.8147 8.66271C19.8024 8.5161 19.7198 8.58479 19.5671 8.86877ZM21.5648 8.64516C21.5833 8.68027 21.5993 8.77852 21.6129 8.93992C21.6156 8.97318 21.6295 9.00183 21.6508 9.01569C21.6914 9.04341 21.7355 9.04834 21.7829 9.03047C21.8106 9.01939 21.8254 8.98982 21.8143 8.96302L21.6591 8.59156C21.6471 8.56477 21.6175 8.54906 21.5879 8.55368C21.5436 8.56045 21.5359 8.59095 21.5648 8.64516ZM20.1548 8.77544C20.0956 9.05019 20.1991 9.12719 20.4652 9.00645C20.4939 8.99351 20.5133 8.96949 20.5179 8.94084C20.5462 8.78129 20.4501 8.70553 20.2296 8.71353C20.1936 8.71446 20.1621 8.74033 20.1548 8.77544ZM21.0797 8.70337C20.9017 8.66456 20.8395 8.74865 20.8931 8.95563C20.9004 8.98335 20.9226 9.0046 20.9513 9.01014C21.2063 9.06066 21.2972 9.00645 21.2239 8.84752C21.1878 8.76898 21.1333 8.71446 21.0797 8.70337ZM19.6373 9.39639C19.592 9.39731 19.5588 9.43889 19.568 9.48325C19.592 9.60152 19.6425 9.72195 19.7195 9.84454C19.7423 9.8815 19.7676 9.89474 19.7953 9.88427C19.8175 9.87596 19.8286 9.84454 19.8193 9.81312C19.7879 9.70101 19.7624 9.58735 19.7426 9.47216C19.734 9.42041 19.6989 9.39516 19.6373 9.39639ZM20.4998 9.43642C20.4985 9.41025 20.4763 9.39084 20.4501 9.39199L20.1844 9.40685C20.1585 9.4084 20.1381 9.43058 20.14 9.45653L20.1534 9.6964C20.1548 9.72257 20.1769 9.74197 20.2031 9.74083L20.4688 9.72597C20.4948 9.72442 20.5151 9.70224 20.5132 9.67628L20.4998 9.43642ZM21.2388 9.46132C21.2405 9.43242 21.2183 9.4084 21.1898 9.40694L20.937 9.39369C20.9088 9.39177 20.8838 9.41394 20.8826 9.44265L20.8707 9.66965C20.869 9.69854 20.8912 9.72257 20.9197 9.72403L21.1725 9.73728C21.2008 9.7392 21.2257 9.71702 21.2269 9.68832L21.2388 9.46132ZM21.6073 9.55717C21.5531 9.97914 21.6135 9.97852 21.7884 9.55532C21.8439 9.42103 21.8035 9.36805 21.6674 9.39639C21.6406 9.40193 21.6212 9.42503 21.6184 9.4546C21.6153 9.4891 21.6116 9.52329 21.6073 9.55717ZM20.4449 10.253C20.5047 10.3256 20.5281 10.3127 20.5151 10.2142C20.4997 10.0996 20.4578 10.0608 20.3895 10.0977C20.3636 10.1125 20.3543 10.1448 20.3719 10.1652L20.4449 10.253ZM20.955 10.1827C21.0221 10.0521 21.007 10.0284 20.9097 10.1116C20.8884 10.1301 20.8764 10.1569 20.8764 10.1855C20.8783 10.2835 20.9044 10.2825 20.955 10.1827Z"/>
        <path d="M39.2802 13.634C39.3227 13.8286 39.4065 14.0014 39.5315 14.1524C39.6221 14.262 39.6741 14.3412 39.6877 14.3898C39.7326 14.5475 39.6381 14.6261 39.404 14.6255C38.703 14.6236 38.0023 14.6267 37.3018 14.6347C36.9292 14.639 36.8546 14.4983 37.0782 14.2124C37.1953 14.0633 37.2898 13.8782 37.3619 13.6571C37.373 13.6201 37.3462 13.5832 37.3083 13.5832H35.0611C34.9225 13.5832 34.8532 13.5142 34.8532 13.3762C34.8513 11.817 34.8513 10.2357 34.8532 8.63224C34.8532 8.62546 34.8507 8.5848 34.8458 8.51027C34.8335 8.3347 34.9283 8.24692 35.1304 8.24692C37.2864 8.24692 39.4431 8.24692 41.6004 8.24692C41.7341 8.24692 41.8009 8.31345 41.8009 8.44651L41.8065 13.3651C41.8065 13.5105 41.7335 13.5832 41.5875 13.5832L39.3171 13.5887C39.2931 13.5887 39.2746 13.6109 39.2802 13.634ZM41.4378 8.65718C41.4378 8.63501 41.4193 8.61653 41.3971 8.61653H35.2634C35.2413 8.61653 35.2228 8.63501 35.2228 8.65718V11.9024C35.2228 11.9245 35.2413 11.943 35.2634 11.943H41.3971C41.4193 11.943 41.4378 11.9245 41.4378 11.9024V8.65718ZM41.4396 12.3533C41.4396 12.3311 41.4221 12.3135 41.3999 12.3135H35.2625C35.2403 12.3135 35.2228 12.3311 35.2228 12.3533V13.1738C35.2228 13.196 35.2403 13.2135 35.2625 13.2135H41.3999C41.4221 13.2135 41.4396 13.196 41.4396 13.1738V12.3533ZM37.7334 13.6534L37.543 14.1921C37.5319 14.2217 37.5513 14.2531 37.58 14.2531H39.0695C39.0926 14.2531 39.1083 14.2281 39.0991 14.206L38.8699 13.6441C38.8588 13.6164 38.8348 13.5979 38.8099 13.5979L37.8128 13.5859C37.7796 13.5859 37.7481 13.6127 37.7334 13.6534Z"/>
        <path d="M37.4342 11.4884C37.2328 11.3362 37.0803 11.1517 36.9768 10.9349C36.8819 10.7353 36.8394 10.5077 36.8493 10.252C36.8764 9.55099 37.2528 9.0859 37.9784 8.85674C38.2322 8.77666 38.4848 8.77974 38.7361 8.86598C39.2179 9.03107 39.5413 9.32368 39.7064 9.74381C39.8437 10.0919 39.8487 10.4467 39.7212 10.8083C39.5856 11.1927 39.326 11.4736 38.9422 11.651C38.6872 11.7699 38.434 11.8161 38.1827 11.7896C37.9135 11.7619 37.664 11.6615 37.4342 11.4884ZM38.5209 9.32337C38.5098 9.33816 38.5036 9.3551 38.5024 9.3742C38.5014 9.40099 38.5245 9.42317 38.556 9.42594C38.6391 9.43272 38.6493 9.39945 38.5865 9.32615C38.568 9.30397 38.5356 9.30304 38.5209 9.32337ZM38.02 9.35294C38.0126 9.37019 38.0126 9.38744 38.02 9.40469C38.0302 9.42871 38.0616 9.43888 38.0903 9.42686C38.1623 9.39483 38.1626 9.36311 38.0912 9.33169C38.0625 9.31875 38.0302 9.32892 38.02 9.35294ZM37.2882 10.1217C37.3498 10.1365 37.3855 10.1168 37.3954 10.0626C37.4133 9.96465 37.4364 9.86762 37.4647 9.77153C37.4813 9.71362 37.4749 9.67851 37.4453 9.66619C37.4213 9.65602 37.3917 9.67266 37.3797 9.70315L37.2429 10.0404C37.2291 10.0737 37.2503 10.1125 37.2882 10.1217ZM39.2083 9.91567C39.2188 9.98405 39.2419 10.0481 39.2776 10.1079C39.3226 10.1824 39.3648 10.1704 39.4042 10.0718C39.435 9.99422 39.3984 9.88456 39.2943 9.74288C39.1988 9.61229 39.1701 9.66988 39.2083 9.91567ZM37.9951 9.81773C37.8682 9.76044 37.8057 9.79124 37.8075 9.91013C37.8075 9.94093 37.8029 9.9705 37.7936 9.99883C37.7622 10.0906 37.7906 10.1341 37.8787 10.1291C37.9279 10.1267 37.9744 10.1273 38.0182 10.131C38.1272 10.1396 38.1657 10.0814 38.1337 9.95633C38.1207 9.90274 38.069 9.85099 37.9951 9.81773ZM38.787 10.1236C38.8128 10.1236 38.835 10.106 38.8396 10.0811C38.8741 9.88888 38.8239 9.79801 38.689 9.80849C38.5005 9.82327 38.4451 9.91444 38.5227 10.082C38.5338 10.106 38.5597 10.1217 38.5892 10.1217L38.787 10.1236ZM37.2503 10.5856C37.2534 10.6712 37.3018 10.7784 37.3954 10.9072C37.4148 10.933 37.4453 10.9432 37.4675 10.9312C37.4909 10.9176 37.4964 10.8964 37.4841 10.8674C37.465 10.8243 37.4551 10.8006 37.4545 10.7963C37.436 10.723 37.4203 10.649 37.4074 10.5745C37.4019 10.5422 37.3871 10.5144 37.3658 10.4969C37.2839 10.4316 37.2454 10.4612 37.2503 10.5856ZM39.2702 10.5329C39.2259 10.6278 39.2006 10.7433 39.1945 10.8794C39.1908 10.9595 39.2126 10.9672 39.2601 10.9025C39.3272 10.8114 39.3728 10.7036 39.3968 10.5791C39.4024 10.5468 39.3977 10.5154 39.383 10.4923C39.3472 10.4356 39.3097 10.4491 39.2702 10.5329ZM38.1245 10.5106C38.1235 10.4923 38.1078 10.4784 38.0894 10.4793L37.8237 10.4946C37.8057 10.496 37.7918 10.5117 37.7924 10.5298L37.8065 10.7733C37.8075 10.7916 37.8232 10.8055 37.8416 10.8046L38.1073 10.7893C38.1254 10.788 38.1392 10.7722 38.1386 10.7542L38.1245 10.5106ZM38.7426 10.787C38.7722 10.7815 38.7971 10.7621 38.8091 10.7353C38.8997 10.5345 38.8205 10.4578 38.5717 10.5052C38.5393 10.5117 38.5135 10.5366 38.5061 10.569C38.4642 10.7507 38.543 10.8234 38.7426 10.787ZM38.5061 11.225C38.4901 11.2614 38.4971 11.2838 38.5273 11.2925C38.5523 11.2999 38.58 11.2832 38.5939 11.2546C38.6419 11.1505 38.6256 11.1258 38.5449 11.1807C38.5264 11.193 38.5135 11.2078 38.5061 11.225ZM38.0579 11.2879C38.0745 11.3039 38.0912 11.3039 38.1078 11.2879C38.1263 11.2703 38.1291 11.238 38.1152 11.2075C38.0758 11.1268 38.0505 11.1298 38.0394 11.2167C38.0357 11.2453 38.0422 11.2721 38.0579 11.2879Z"/>
        <path d="M51.0161 11.9485C50.9046 11.9171 50.9061 11.8922 51.0207 11.8737C51.7439 11.7536 52.4843 11.7092 53.242 11.7406C54.2825 11.7831 55.2814 12.0064 56.2386 12.4106C56.3526 12.4586 56.5131 12.5427 56.7201 12.6628C57.2492 12.969 57.6139 13.3839 57.8141 13.9075C57.9835 14.3492 58.0014 14.8136 57.8677 15.3009C57.739 15.7709 57.5006 16.1941 57.1525 16.5705C56.8377 16.9112 56.4977 17.2216 56.1324 17.5019C55.8268 17.736 55.4397 17.9824 54.9709 18.2411C52.8968 19.3876 50.6717 20.1064 48.2957 20.3978C48.2095 20.4083 48.2033 20.3907 48.2773 20.3452C49.237 19.7476 50.2159 19.1664 51.2138 18.6015C52.0103 18.15 52.797 17.6824 53.5738 17.1988C54.0512 16.9013 54.6275 16.4833 55.3026 15.9449C55.6593 15.6603 55.9396 15.3508 56.1435 15.0163C56.2463 14.8469 56.2944 14.6947 56.2876 14.5598C56.2784 14.3806 56.2005 14.2263 56.0538 14.0969C55.5462 13.6491 54.9573 13.2948 54.2871 13.0343C53.2159 12.6185 52.1255 12.2565 51.0161 11.9485Z"/>
        <path d="M27.5707 16.1288C27.1401 16.119 26.8801 16.1174 26.7908 16.1242C26.3362 16.1599 26.0214 16.0303 25.8465 15.7352C25.7522 15.5769 25.7051 15.2889 25.7051 14.8712C25.7051 14.4018 25.7051 13.9327 25.7051 13.464C25.7051 13.1141 25.7343 12.8744 25.7929 12.7451C25.8711 12.5726 25.9977 12.4426 26.1726 12.3551C26.2909 12.296 26.4619 12.2664 26.6855 12.2664C27.6446 12.2664 28.6037 12.2664 29.5629 12.2664C29.8419 12.2664 30.0486 12.3083 30.1829 12.3921C30.4373 12.5504 30.5664 12.8088 30.5701 13.1673C30.5762 13.7064 30.5793 14.2666 30.5793 14.8481C30.5793 14.8768 30.6024 14.8999 30.6311 14.8999C31.013 14.8999 31.3912 14.8999 31.7658 14.8999C32.0485 14.8999 32.2524 14.935 32.3775 15.0052C32.5148 15.0822 32.6205 15.1928 32.6944 15.337C32.7474 15.4404 32.776 15.5852 32.7803 15.7712C32.789 16.1421 32.7945 16.7603 32.797 17.6258C32.7982 18.0212 32.6642 18.3009 32.395 18.4648C32.2521 18.5522 32.0189 18.596 31.6955 18.596C30.8861 18.596 30.0769 18.596 29.2681 18.596C28.686 18.596 28.3749 18.5926 28.3349 18.5858C27.9166 18.5168 27.68 18.2655 27.6252 17.8318C27.6246 17.8275 27.624 17.5512 27.6234 17.003C27.6234 16.727 27.6212 16.451 27.6169 16.175C27.6169 16.1501 27.5966 16.1298 27.5707 16.1288ZM30.2097 13.1201C30.2106 12.855 29.9953 12.6388 29.7301 12.6388L26.5588 12.6333C26.2937 12.6333 26.0784 12.8476 26.0775 13.1129L26.0737 15.2714C26.0728 15.5365 26.2881 15.7528 26.5534 15.7528L29.7246 15.7583C29.9898 15.7583 30.2051 15.5439 30.206 15.2786L30.2097 13.1201ZM31.4876 16.6084C31.5634 16.6241 31.6308 16.6639 31.678 16.7211L32.3775 17.5749C32.4107 17.6156 32.4274 17.6101 32.4274 17.5583C32.4274 16.9491 32.4274 16.3401 32.4274 15.7315C32.4274 15.5609 32.3584 15.4331 32.2204 15.348C32.1354 15.2957 32.006 15.2692 31.8323 15.2686C31.4319 15.2673 31.0315 15.2695 30.6311 15.275C30.6052 15.275 30.5839 15.2954 30.5812 15.3212C30.535 15.7364 30.2916 16.0099 29.8512 16.1418C29.8188 16.1519 29.8068 16.1917 29.8281 16.2194L30.6357 17.2331C30.6569 17.2598 30.6976 17.2589 30.7161 17.2321C30.8294 17.0695 30.9403 16.9189 31.0487 16.7803C31.167 16.6294 31.3133 16.5721 31.4876 16.6084ZM28.0373 17.4631L29.1304 16.175C29.1699 16.1288 29.1588 16.1064 29.0972 16.1076L28.0438 16.1307C28.0179 16.1316 27.9967 16.151 27.9967 16.176L27.993 17.4474C27.993 17.4924 28.0077 17.4976 28.0373 17.4631ZM30.9046 17.5611C30.7395 17.757 30.5849 17.7631 30.4407 17.5796C30.1327 17.1872 29.8191 16.7988 29.5 16.4144C29.4843 16.395 29.4557 16.394 29.44 16.4125L28.1131 17.9824C28.0946 18.0037 28.0928 18.0342 28.1075 18.0582C28.1784 18.1703 28.2708 18.2264 28.3847 18.2264C29.4874 18.2264 30.5901 18.2264 31.6928 18.2264C31.6977 18.2264 31.7408 18.2282 31.8221 18.2319C31.9675 18.2393 32.1098 18.2042 32.249 18.1266C32.2915 18.1035 32.3008 18.0462 32.2694 18.0092L31.4387 17.0178C31.4192 16.9937 31.3823 16.9937 31.3629 17.0168C31.2126 17.1955 31.0598 17.3769 30.9046 17.5611Z"/>
        <path d="M38.3277 13.0214C38.4905 13.0214 38.6225 12.8894 38.6225 12.7266C38.6225 12.5638 38.4905 12.4318 38.3277 12.4318C38.1649 12.4318 38.033 12.5638 38.033 12.7266C38.033 12.8894 38.1649 13.0214 38.3277 13.0214Z"/>
        <path d="M27.2422 15.3286C27.111 15.2744 27.0454 15.1765 27.0454 15.0348C27.0454 14.5297 27.0454 14.0356 27.0454 13.5527C27.0454 13.3771 27.0722 13.2496 27.1258 13.1701C27.2293 13.0167 27.3873 13.0004 27.5998 13.1212C28.007 13.3528 28.4133 13.5853 28.8186 13.8188C28.972 13.9075 29.0684 13.9833 29.1078 14.0461C29.1676 14.141 29.1704 14.2423 29.1161 14.3501C29.0829 14.4166 29.0164 14.4801 28.9166 14.5405C28.5285 14.7752 28.1358 15.0009 27.7384 15.2178C27.7329 15.2208 27.6922 15.2467 27.6165 15.2954C27.4976 15.3718 27.3728 15.3829 27.2422 15.3286ZM28.6828 14.1764L27.4649 13.4843C27.4455 13.4732 27.4206 13.4871 27.4206 13.5102L27.415 14.8907C27.415 14.9313 27.4594 14.9553 27.4954 14.935L28.6809 14.2642C28.7327 14.2346 28.7333 14.2053 28.6828 14.1764Z"/>
        <path d="M17.8335 17.781C17.932 17.8771 17.9816 17.9948 17.9823 18.134C17.9872 18.827 17.9887 19.52 17.9869 20.213C17.9863 20.505 17.8751 20.6778 17.6533 20.7314C17.6176 20.74 17.4408 20.7443 17.1229 20.7443C16.3461 20.7443 15.5696 20.7443 14.7934 20.7443C14.4836 20.7443 14.3052 20.7379 14.2584 20.7249C14.041 20.6652 13.9353 20.4868 13.9415 20.1899C13.9452 20.0205 13.947 19.8487 13.947 19.6743C13.947 19.6401 13.9193 19.6124 13.8851 19.6124H11.235C11.1094 19.6124 11.0311 19.5511 11.0003 19.4285C10.8759 18.9277 10.9674 18.5227 11.2748 18.2134C11.4146 18.0724 11.6656 17.939 12.0278 17.8133C12.4313 17.6729 12.8351 17.5327 13.2392 17.3929C13.2706 17.3818 13.2919 17.3569 13.2919 17.3319V17.0178C13.2919 16.9947 13.2762 16.9669 13.2485 16.942C12.7723 16.512 12.5219 16.0066 12.4972 15.4257C12.4701 14.7659 12.6666 14.2115 13.0868 13.7624C13.2827 13.5524 13.5201 13.4076 13.7992 13.3281C14.0598 13.2536 14.3277 13.2496 14.6031 13.3161C15.0392 13.4214 15.3731 13.6663 15.6047 14.0507C16.0255 14.7499 16.0692 15.4777 15.7359 16.2342C15.5943 16.5564 15.3765 16.8132 15.0827 17.0048C14.9558 17.0874 14.9197 17.2016 14.9745 17.3476C14.9847 17.3735 15.0069 17.3938 15.0365 17.4021C15.2176 17.4582 15.3974 17.5183 15.5761 17.5823C15.7424 17.6421 15.9094 17.672 16.0769 17.672C16.5753 17.672 17.0712 17.672 17.5646 17.672C17.6687 17.672 17.7583 17.7083 17.8335 17.781ZM14.2242 16.9013C14.9727 16.9022 15.5798 16.1732 15.5816 15.2728C15.5835 14.3723 14.9782 13.6404 14.2299 13.6395C13.4813 13.6386 12.8742 14.3676 12.8724 15.2681C12.8705 16.1686 13.4758 16.9004 14.2242 16.9013ZM13.9249 17.2451C13.8583 17.229 13.7909 17.2195 13.7225 17.2164C13.6985 17.2155 13.6791 17.2367 13.6818 17.2608C13.6972 17.3951 13.6695 17.5084 13.5987 17.6008C13.5506 17.6643 13.4585 17.7191 13.3224 17.7653C12.9035 17.9076 12.4849 18.0508 12.0666 18.195C11.787 18.2911 11.6003 18.3945 11.5067 18.5054C11.3533 18.6859 11.3031 18.9145 11.3561 19.1911C11.3607 19.2179 11.3847 19.2373 11.4124 19.2373L13.9008 19.2428C13.9267 19.2428 13.947 19.2225 13.947 19.1966C13.947 18.9206 13.947 18.645 13.947 18.3696C13.947 18.1244 13.9763 17.9575 14.0348 17.8688C14.1395 17.7092 14.3253 17.6455 14.592 17.6775C14.6752 17.6874 14.6927 17.6581 14.6447 17.5897C14.6083 17.5386 14.5914 17.4527 14.5939 17.3319C14.5957 17.2848 14.5532 17.2478 14.5061 17.2552C14.3779 17.2762 14.2504 17.2845 14.1235 17.2802C14.0804 17.2783 14.0142 17.2666 13.9249 17.2451ZM15.8625 19.4128C15.9208 19.4738 16.0187 19.4729 16.0769 19.411L17.3022 18.1063C17.3422 18.0631 17.333 18.0416 17.2744 18.0416H14.653C14.584 18.0416 14.5735 18.0665 14.6216 18.1164L15.8625 19.4128ZM16.7856 19.3481L17.547 20.0698C17.6 20.1203 17.6265 20.1086 17.6265 20.0347L17.621 18.4195C17.6203 18.3369 17.592 18.3262 17.5359 18.3872L16.7819 19.2031C16.7431 19.2456 16.745 19.3093 16.7856 19.3481ZM14.8923 18.9222C14.7285 18.7546 14.5554 18.5757 14.373 18.3853C14.3354 18.3459 14.3166 18.3536 14.3166 18.4084V20.0347C14.3166 20.0944 14.3382 20.104 14.3813 20.0633L15.1621 19.3213C15.1815 19.3038 15.1834 19.2733 15.1677 19.2511C15.0839 19.1347 14.9921 19.025 14.8923 18.9222ZM17.2606 20.3803C17.3142 20.3809 17.3213 20.363 17.2818 20.3267L16.5103 19.6244C16.477 19.5939 16.4253 19.5949 16.3929 19.6272C16.1188 19.8982 15.8271 19.8995 15.5179 19.6309C15.48 19.5976 15.4209 19.6004 15.3802 19.6374L14.6585 20.2962C14.6019 20.3486 14.6111 20.3747 14.6863 20.3747L17.2606 20.3803Z"/>
        <path d="M40.8548 20.6852C40.7809 20.4295 40.6977 20.1489 40.6053 19.8434C40.5406 19.629 40.5545 19.4239 40.6469 19.228C40.7362 19.0389 40.8723 18.9043 41.0553 18.8242C41.3036 18.7164 41.5829 18.7346 41.8934 18.8787C43.1174 19.4479 44.3393 20.0227 45.559 20.6029C45.8288 20.7317 46.0078 20.8644 46.0959 21.0012C46.2104 21.1786 46.2477 21.3764 46.2077 21.5944C46.1818 21.7361 46.0943 21.9052 45.9452 22.1017C45.1555 23.1465 44.3612 24.1878 43.5622 25.2258C43.4273 25.4008 43.2659 25.5114 43.078 25.5576C42.7743 25.6321 42.523 25.5877 42.324 25.4245C42.1989 25.3216 42.0933 25.1337 42.007 24.8608C41.9399 24.6496 41.882 24.4376 41.8333 24.2251C41.8179 24.1598 41.7899 24.1537 41.7492 24.2066C41.2601 24.8448 40.7762 25.4824 40.2976 26.1194C40.1701 26.2894 40.0025 26.3963 39.7949 26.44C39.4728 26.509 39.2162 26.4508 39.0252 26.2654C38.9143 26.1588 38.8124 25.945 38.7194 25.6241C38.5321 24.9742 38.3491 24.3135 38.1705 23.6421C38.1631 23.6162 38.1372 23.6014 38.1114 23.6088C33.7426 24.8445 29.3097 25.7762 24.8128 26.404C21.522 26.8635 18.2159 27.1426 14.8943 27.2411C12.9982 27.2972 11.1037 27.2608 9.21064 27.1321C7.66321 27.0274 6.13364 26.8038 4.62194 26.4613C3.88518 26.2937 3.14165 26.0454 2.39134 25.7165C1.93303 25.5157 1.53323 25.2511 1.19196 24.9228C0.8359 24.5796 0.60859 24.218 0.510028 23.838C0.392985 23.3839 0.44627 22.9321 0.669884 22.4824C0.959411 21.9021 1.35613 21.3899 1.86003 20.9458C2.2204 20.6279 2.72615 20.2771 3.37728 19.8933C4.01978 19.5151 4.69309 19.196 5.39719 18.936C6.12533 18.6674 6.86578 18.4398 7.61855 18.2531C7.70417 18.2322 7.71495 18.2479 7.65089 18.3003C7.64103 18.3083 7.62933 18.3151 7.61578 18.3206C6.30058 18.8491 5.05838 19.5141 3.88919 20.3156C3.16475 20.8127 2.54134 21.4142 2.01896 22.1202C1.76886 22.4578 1.60992 22.7846 1.54216 23.1006C1.47933 23.3932 1.56218 23.6568 1.79073 23.8915C1.98046 24.0868 2.25613 24.2624 2.61773 24.4182C3.33415 24.7275 4.07738 24.9471 4.8474 25.0771C6.46013 25.35 8.08426 25.5046 9.71978 25.5409C13.2526 25.6192 16.7796 25.5098 20.3008 25.2129C26.1536 24.7201 32.0199 23.9698 37.8998 22.962C37.9358 22.9555 37.9589 22.9195 37.9497 22.8844C37.7544 22.1556 37.5616 21.45 37.3712 20.7674C37.2979 20.5044 37.3115 20.2712 37.4119 20.0679C37.5117 19.8646 37.6749 19.7264 37.9016 19.653C38.1301 19.5797 38.3627 19.6035 38.5992 19.7242C38.7157 19.7839 38.776 19.8147 38.7804 19.8166C39.4339 20.1166 40.0962 20.4305 40.767 20.7582C40.8514 20.7995 40.8807 20.7751 40.8548 20.6852Z"/>
        <path d="M40.619 35.3412C38.9483 36.6736 37.0981 37.7018 35.0683 38.4256C32.0332 39.5085 28.9584 39.8443 25.8438 39.4328C22.8721 39.0404 20.133 38.0295 17.6265 36.4001C15.37 34.9328 13.4945 33.0841 12.0001 30.8541C11.8873 30.686 11.8381 30.54 11.8522 30.4161C11.8713 30.2443 11.9736 30.1466 12.159 30.1232C12.1602 30.1232 12.2893 30.1232 12.5462 30.1232C15.9336 30.1251 19.3116 29.943 22.6799 29.5771C28.4705 28.9482 34.1221 27.9444 39.6349 26.5657C41.9332 25.991 44.2867 25.2773 46.6953 24.4248C46.922 24.3447 47.0819 24.3065 47.1749 24.3102C47.3677 24.317 47.474 24.4238 47.4937 24.6308C47.5023 24.7251 47.4832 24.8578 47.4364 25.0291C46.8327 27.2239 45.8665 29.278 44.5377 31.1914C43.7813 32.2811 42.9404 33.2618 42.0152 34.1335C41.5821 34.5419 41.1167 34.9445 40.619 35.3412ZM41.9274 33.1318C44.0699 30.9468 45.6041 28.3602 46.5299 25.3719C46.5472 25.3146 46.5278 25.2958 46.4717 25.3155C44.2676 26.0818 42.0192 26.7511 39.7263 27.3234C34.1366 28.7193 28.4776 29.7243 22.7492 30.3385C19.5546 30.6816 16.331 30.864 13.0784 30.8855C12.9996 30.8862 12.9832 30.9185 13.0294 30.9826C14.4537 32.9477 16.1899 34.5813 18.2382 35.8836C18.7544 36.2113 19.29 36.5147 19.845 36.7938C22.9547 38.3566 26.2568 39.0179 29.7515 38.7776C30.37 38.7345 30.9811 38.6603 31.5848 38.5549C34.7104 38.0092 37.5383 36.7599 40.0682 34.8071C40.6652 34.3457 41.2849 33.7873 41.9274 33.1318Z"/>
        <path d="M49.101 29.3895C48.9747 29.27 48.9135 29.1142 48.9171 28.922C48.9245 28.5216 49.0906 28.2139 49.4152 27.9989C49.442 27.9813 49.4743 27.9832 49.49 28.0026L49.6009 28.1356C49.6323 28.1738 49.6521 28.1957 49.6601 28.2012C49.7537 28.2678 49.7522 28.3368 49.6554 28.4082C49.5366 28.4951 49.4562 28.5961 49.4143 28.7113C49.3773 28.8148 49.3878 28.9057 49.4457 28.9839C49.4981 29.0541 49.5704 29.0855 49.6628 29.0781C49.722 29.0732 49.7863 29.0418 49.856 28.9839C50.0968 28.7837 50.257 28.6571 50.3365 28.6041C50.4923 28.5012 50.6762 28.4784 50.8881 28.5357C51.3513 28.6602 51.5506 28.9506 51.4859 29.4071C51.4348 29.7687 51.2328 30.0536 50.8798 30.2618C50.8539 30.2775 50.8225 30.2729 50.8068 30.2526L50.5776 29.9412C50.561 29.9181 50.5712 29.8857 50.598 29.87C50.7532 29.7801 50.8665 29.6698 50.938 29.5392C50.9934 29.4376 51.0082 29.3418 50.9823 29.2519C50.9522 29.1459 50.8733 29.0837 50.7458 29.0652C50.7181 29.0606 50.6876 29.068 50.6608 29.0837C50.5462 29.1521 50.4375 29.2288 50.3346 29.3138C50.1751 29.4468 50.0694 29.5266 50.0177 29.5531C49.6943 29.7188 49.3887 29.6643 49.101 29.3895Z"/>
        <path d="M41.0619 31.2053C41.0804 31.257 41.0896 31.3198 41.0896 31.3938C41.0896 32.0486 41.0896 32.725 41.0896 33.4229C41.0896 33.5634 41.0191 33.6339 40.878 33.6345C40.4431 33.6364 40.0014 33.6324 39.553 33.6225C39.5493 33.6225 39.3922 33.629 39.0817 33.6419C38.8938 33.6493 38.7081 33.6281 38.5245 33.5782C38.4977 33.5708 38.4672 33.5735 38.4377 33.5855C38.344 33.6231 38.2116 33.6318 38.0403 33.6114C37.2204 33.5153 36.5754 33.1516 36.1054 32.5202C35.8732 32.2078 35.7133 31.857 35.6259 31.4677C35.5427 31.0975 35.5381 30.7208 35.612 30.3376C35.7691 29.5245 36.2185 28.9004 36.9601 28.4655C37.4394 28.1846 37.984 28.0694 38.5938 28.1199C39.8419 28.2234 40.6353 28.8758 40.9741 30.077C41.0758 30.4368 41.1013 30.7836 41.0508 31.1175C41.0465 31.144 41.0502 31.1732 41.0619 31.2053ZM38.8165 29.1262C39.0007 29.1773 39.188 29.2556 39.3783 29.3609C39.4097 29.3785 39.4495 29.3729 39.4744 29.3471L39.8089 29.0126C39.8431 28.9793 39.8366 28.9229 39.796 28.8989C39.2169 28.5484 38.6268 28.4169 38.0255 28.5043C37.4878 28.582 37.0304 28.8025 36.6534 29.1659C36.2622 29.5429 36.0278 30.0293 35.9502 30.625C35.9465 30.6518 35.965 30.6758 35.9899 30.6749L36.4981 30.6656C36.5231 30.6647 36.5434 30.6425 36.5434 30.6139C36.5434 30.5412 36.5514 30.4796 36.5674 30.4291C36.836 29.5913 37.3858 29.1395 38.2168 29.0735C38.4306 29.0569 38.6305 29.0745 38.8165 29.1262ZM39.7516 29.6002C39.7184 29.6317 39.7174 29.6871 39.7489 29.7296C39.9725 30.0308 40.0969 30.3829 40.1222 30.7858C40.124 30.8153 40.148 30.8384 40.1767 30.8375L40.6692 30.8357C40.6941 30.8347 40.7135 30.8135 40.7126 30.7885C40.6867 30.2526 40.5158 29.7487 40.1998 29.2768C40.1767 29.2426 40.1314 29.2362 40.1046 29.262L39.7516 29.6002ZM37.4416 31.9685C37.7077 32.2057 37.9689 32.3144 38.2251 32.2947C38.4444 32.2781 38.5371 32.3782 38.5033 32.595C38.4792 32.7533 38.5153 32.7958 38.6114 32.7225C38.6373 32.7031 38.6668 32.692 38.6927 32.692L39.2831 32.6874C39.3109 32.6874 39.334 32.6652 39.334 32.6375C39.334 32.486 39.3275 32.3572 39.3146 32.2513C39.2801 31.971 39.402 31.8545 39.6805 31.902C39.7846 31.9198 39.9235 31.9146 40.0972 31.8863C40.1231 31.8816 40.1425 31.8595 40.1425 31.8327V31.2736C40.1425 31.2385 40.1138 31.2108 40.0787 31.2099C39.873 31.2068 39.7695 31.1218 39.7683 30.9549C39.7658 30.5471 39.6487 30.2061 39.4171 29.932C39.1941 29.6677 38.9003 29.5075 38.5356 29.4515C38.166 29.3942 37.8303 29.4706 37.5284 29.6806C37.2561 29.8697 37.0673 30.1294 36.962 30.4596C36.7833 31.0208 36.9432 31.5237 37.4416 31.9685ZM36.8271 32.7234C37.1868 33.0179 37.6027 33.191 38.0745 33.2427C38.1059 33.2464 38.1327 33.2224 38.1327 33.191V32.7262C38.1327 32.6939 38.1096 32.6661 38.0782 32.6606C37.2343 32.4943 36.7162 31.9725 36.524 31.0953C36.5185 31.0676 36.4944 31.0482 36.4667 31.0482L35.9908 31.051C35.9659 31.0519 35.9456 31.0741 35.9483 31.099C36.0204 31.7612 36.3133 32.3027 36.8271 32.7234ZM40.72 31.5444C40.72 31.513 40.6941 31.4871 40.6627 31.4871H40.5703C40.5389 31.4871 40.513 31.513 40.513 31.5444V33.2076C40.513 33.239 40.5389 33.2649 40.5703 33.2649H40.6627C40.6941 33.2649 40.72 33.239 40.72 33.2076V31.5444ZM39.8876 32.3186C39.8875 32.2818 39.857 32.2513 39.82 32.2512L39.7701 32.2513C39.7331 32.2513 39.7027 32.2818 39.7028 32.3189L39.7043 33.2004C39.7045 33.2372 39.735 33.2677 39.7719 33.2677L39.8218 33.2676C39.8588 33.2677 39.8893 33.2372 39.8891 33.2001L39.8876 32.3186ZM38.8803 33.1041C38.8378 33.2027 38.8661 33.256 38.9653 33.264C38.9939 33.2658 39.0216 33.2538 39.0401 33.2298C39.1233 33.1214 39.0922 33.0656 38.9468 33.0626C38.9182 33.0616 38.8914 33.0783 38.8803 33.1041Z"/>
        <path d="M48.0735 30.7238C48.0403 30.7063 48.0264 30.6675 48.0421 30.637L48.6436 29.4699C48.6566 29.4441 48.6871 29.433 48.7111 29.445L49.0012 29.5947C49.0373 29.6132 49.0502 29.6594 49.0308 29.6982L48.6982 30.3681C48.6806 30.4041 48.6982 30.4503 48.7388 30.4707L49.1186 30.6619C49.1583 30.6813 49.2064 30.6666 49.2249 30.6277L49.5048 30.0539C49.5169 30.029 49.5446 30.016 49.5723 30.0234C49.6936 30.0549 49.8021 30.1106 49.8976 30.1907C49.9179 30.2073 49.9234 30.2369 49.9114 30.2618L49.6333 30.844C49.6213 30.8698 49.6296 30.9003 49.6527 30.9123L50.0944 31.136C50.1175 31.148 50.147 31.1369 50.16 31.111L50.4954 30.4356C50.5148 30.3977 50.5582 30.3783 50.598 30.3912C50.7366 30.4349 50.8376 30.4882 50.901 30.5511C50.9214 30.5705 50.926 30.6019 50.9131 30.6277L50.3078 31.816C50.2967 31.8382 50.2681 31.8465 50.2441 31.8345L48.0735 30.7238Z"/>
        <path d="M24.4219 34.2305C24.2026 34.358 24.2143 34.4597 24.457 34.5354C24.6184 34.5853 24.7819 34.6226 24.9476 34.6472C25.207 34.6854 25.3715 34.7147 25.4411 34.735C26.3479 35.0005 26.877 35.6267 27.0285 36.6136C27.0698 36.8809 26.9713 37.0075 26.7329 36.9933C26.63 36.9872 26.5761 36.9841 26.5712 36.9841C24.6116 36.9841 22.6521 36.985 20.6925 36.9869C20.5428 36.9869 20.4384 36.981 20.3793 36.9693C20.2074 36.9354 20.1369 36.8326 20.1677 36.6607C20.3808 35.4718 21.0563 34.8019 22.1941 34.6509C22.4522 34.6164 22.6625 34.5764 22.8252 34.5308C22.8566 34.5216 22.8815 34.5031 22.8945 34.4781C22.937 34.3931 22.9117 34.3207 22.8187 34.261C22.5415 34.083 22.3505 33.8153 22.2458 33.458C22.2366 33.4284 22.2116 33.4072 22.1811 33.4016C21.9304 33.3604 21.7437 33.2443 21.6212 33.0533C21.5152 32.8882 21.4724 32.7096 21.4927 32.5174C21.5137 32.3172 21.6079 32.1437 21.7755 31.9971C21.8161 31.9611 21.8448 31.9149 21.8596 31.8631C22.0481 31.1874 22.4013 30.7466 22.9194 30.5409C23.3962 30.3511 23.8773 30.3598 24.3627 30.5667C24.8753 30.7854 25.1947 31.2169 25.321 31.8613C25.3265 31.8909 25.3431 31.9167 25.3672 31.9361C25.7195 32.2121 25.8073 32.5531 25.6305 32.959C25.5221 33.2073 25.3142 33.3588 25.0068 33.4137C24.9791 33.4183 24.9569 33.4386 24.9504 33.4645C24.8605 33.8224 24.6843 34.0777 24.4219 34.2305ZM22.9739 33.8942C23.4409 34.1824 23.8906 34.1575 24.323 33.8193C24.3489 33.7996 24.3467 33.7854 24.3165 33.7768C24.1582 33.7306 24.0418 33.7429 23.9673 33.8138C23.6968 34.07 23.4707 34.0863 23.289 33.8627C23.2028 33.7568 23.1683 33.641 23.1855 33.5153C23.2077 33.3607 23.293 33.2541 23.4415 33.1956C23.6368 33.1186 23.8046 33.1679 23.9451 33.3434C23.9673 33.3712 23.9941 33.3878 24.0181 33.3878L24.5328 33.3933C24.5586 33.3933 24.5799 33.3693 24.5808 33.3388C24.5956 32.9637 24.6021 32.5882 24.6002 32.2124C24.599 31.9346 24.5543 31.7215 24.4662 31.573C24.2728 31.2453 23.9543 31.1008 23.5108 31.1396C22.8886 31.1945 22.5861 31.5271 22.6034 32.1376C22.6077 32.2823 22.6099 32.3563 22.6099 32.3593C22.6086 32.6224 22.6034 32.8854 22.5942 33.1485C22.5818 33.4823 22.7084 33.7309 22.9739 33.8942ZM22.0822 32.9784C22.1642 33.0487 22.2045 33.0277 22.2033 32.9156L22.1959 32.315C22.1947 32.2177 22.1556 32.1967 22.0785 32.2522C21.7718 32.4708 21.773 32.7129 22.0822 32.9784ZM25.1786 32.2882C25.0622 32.1675 25.0043 32.1946 25.0049 32.3695L25.0086 32.9119C25.0092 33.0191 25.0496 33.0391 25.1297 32.972C25.3921 32.7527 25.4084 32.5247 25.1786 32.2882ZM23.3472 34.4366C23.2964 34.4366 23.2604 34.4874 23.2789 34.5336C23.3349 34.6771 23.4088 34.8099 23.5006 34.9318C23.5173 34.9534 23.5357 34.9842 23.5561 35.0242C23.5998 35.1123 23.6442 35.1123 23.6891 35.0242C23.7088 34.9848 23.7304 34.9519 23.7538 34.9254C23.8647 34.7972 23.9174 34.6497 23.9118 34.4828C23.9109 34.4587 23.8896 34.4393 23.8638 34.4393L23.3472 34.4366ZM22.9878 35.6193L23.2936 35.3994C23.3177 35.3828 23.3232 35.3495 23.3057 35.3255L23.0118 34.9143C22.9989 34.8958 22.9684 34.8875 22.9342 34.893L22.7013 34.9281C22.6441 34.9365 22.6108 34.9974 22.6357 35.0483L22.8954 35.5879C22.9139 35.6258 22.9582 35.6406 22.9878 35.6193ZM23.9682 35.3855L24.2602 35.635C24.2786 35.6507 24.3101 35.6406 24.3239 35.6128L24.6058 35.0547C24.6289 35.0104 24.6058 34.9568 24.5605 34.9466L24.3008 34.893C24.2703 34.8866 24.2398 34.8976 24.2232 34.9207L23.9589 35.3061C23.9414 35.3319 23.9451 35.3661 23.9682 35.3855ZM25.9881 35.4308C25.7164 35.2134 25.4217 35.0858 25.1038 35.0483C25.0752 35.0446 25.0484 35.0593 25.0354 35.0834L24.5328 36.0213C24.4527 36.1697 24.3473 36.1934 24.2167 36.0924L23.6706 35.6711C23.6337 35.6424 23.5792 35.6443 23.5385 35.6766L22.9915 36.1044C22.8806 36.1913 22.7904 36.1682 22.7207 36.0351L22.2319 35.0963C22.2079 35.052 22.1589 35.0279 22.1109 35.0372C21.2817 35.1992 20.7674 35.6917 20.5678 36.5147C20.5558 36.5655 20.5936 36.6145 20.6463 36.6145L26.5776 36.6089C26.6026 36.6089 26.622 36.5877 26.6192 36.5627C26.5724 36.1069 26.362 35.7296 25.9881 35.4308Z"/>
        <path d="M29.9985 31.8724C30.0065 31.6783 30.0077 31.5419 30.0022 31.463C29.9806 31.1427 30.0779 30.9172 30.2941 30.7866C30.4149 30.714 30.6274 30.6776 30.9317 30.6776C31.6919 30.6776 32.4524 30.6776 33.2131 30.6776C33.5476 30.6776 33.7768 30.7916 33.9006 31.0195C33.9659 31.1402 33.9986 31.3642 33.9986 31.6913C33.9979 32.1391 33.9967 32.5866 33.9949 33.0339C33.9936 33.2969 33.9052 33.4934 33.7297 33.6234C33.6157 33.7078 33.4303 33.75 33.1734 33.75C32.8759 33.75 32.574 33.75 32.2679 33.75C32.2411 33.75 32.2198 33.7712 32.2198 33.798C32.2198 34.7516 32.2217 35.6981 32.2254 36.6376C32.2272 37.0361 32.0772 37.2745 31.7754 37.3528C31.7144 37.3688 31.471 37.3768 31.0454 37.3768C30.6684 37.3768 30.2911 37.3768 29.9134 37.3768C29.3917 37.3768 29.1129 37.3728 29.0772 37.3648C28.8025 37.305 28.6432 37.1264 28.5995 36.8288C28.5952 36.8011 28.593 36.5809 28.593 36.1682C28.593 35.0322 28.593 33.8963 28.593 32.7604C28.593 32.4875 28.6328 32.2937 28.7122 32.1792C28.8416 31.9931 29.0483 31.9084 29.3322 31.925C29.4363 31.9312 29.6424 31.9297 29.9504 31.9204C29.9763 31.9195 29.9975 31.8992 29.9985 31.8724ZM30.5723 33.3628C30.6955 33.3708 30.8184 33.3813 30.941 33.3942C31.0087 33.4016 31.0534 33.4226 31.0749 33.4571C31.1002 33.4965 31.1116 33.5507 31.1091 33.6197C31.1067 33.7035 31.1375 33.7164 31.2015 33.6585L31.4963 33.3924C31.5166 33.3739 31.5453 33.3638 31.5776 33.3647L33.2852 33.3813C33.5144 33.3838 33.629 33.2683 33.629 33.0348C33.629 32.4878 33.6234 31.9408 33.6123 31.3937C33.608 31.1615 33.4903 31.0457 33.2593 31.0463C32.4043 31.0469 31.549 31.0472 30.6933 31.0472C30.479 31.0472 30.3718 31.1544 30.3718 31.3688V33.1494C30.3718 33.2831 30.4386 33.3542 30.5723 33.3628ZM31.0186 36.1793C30.5134 36.1846 29.7249 36.1793 29.7249 36.1793C29.7249 36.1793 29.4314 36.1712 29.3784 36.1756C29.1265 36.1959 29.0079 36.0918 29.0227 35.8632C29.0288 35.7604 29.0319 35.7065 29.0319 35.7015C29.0319 34.735 29.0285 33.7688 29.0218 32.8029C29.0193 32.514 29.169 32.36 29.4708 32.3409C29.6735 32.3279 29.818 32.3242 29.9042 32.3298C29.9393 32.3325 29.9689 32.3178 29.9754 32.2956C29.9827 32.2697 29.9609 32.2549 29.9098 32.2512C29.7619 32.2408 29.6156 32.2475 29.4708 32.2716C29.4524 32.2746 29.3747 32.2796 29.238 32.2863C29.1388 32.2913 29.0652 32.3307 29.0171 32.4046C28.9808 32.4607 28.9626 32.5611 28.9626 32.7058C28.9626 34.0087 28.9626 35.3116 28.9626 36.6145C28.9626 36.8332 29.0365 36.9659 29.1844 37.0127C29.2103 37.0213 29.3402 37.03 29.5743 37.0386C30.2138 37.0614 30.8717 37.0577 31.548 37.0275C31.7446 37.0183 31.8437 36.9154 31.8456 36.7189C31.8517 35.8078 31.8465 34.8644 31.8299 33.8886C31.8268 33.7149 31.8068 33.6973 31.7698 33.8359C31.7655 33.8513 31.7637 33.867 31.7643 33.8831C31.7951 34.6087 31.7935 35.3239 31.7596 36.0286C31.755 36.1072 31.6922 36.1682 31.6155 36.17C31.6155 36.17 31.2517 36.1768 31.0186 36.1793ZM30.9059 34.2647C30.7734 34.2055 30.7186 34.1033 30.7414 33.9579C30.766 33.799 30.7121 33.7269 30.5797 33.7417C30.5439 33.746 30.5141 33.7438 30.49 33.7352C30.1038 33.5929 29.9443 33.2827 30.0114 32.8047C30.0179 32.7604 29.9864 32.7197 29.9458 32.7206L29.4514 32.7299C29.4265 32.7308 29.4071 32.7548 29.4071 32.7853L29.4015 35.744C29.4015 35.7782 29.4293 35.8059 29.4634 35.8059H31.3632C31.39 35.8059 31.4113 35.7847 31.4113 35.7579V34.0106C31.4113 33.981 31.3987 33.9748 31.3734 33.9921L30.989 34.2582C30.965 34.2739 30.9345 34.2767 30.9059 34.2647Z"/>
        <path d="M47.7839 32.6929C47.5825 32.521 47.4546 32.3233 47.4004 32.0997C47.345 31.8687 47.3776 31.6521 47.4984 31.4501C47.6253 31.2388 47.8261 31.082 48.1008 30.9797C48.1563 30.9594 48.2164 30.989 48.2293 31.0435L48.3078 31.3651C48.3143 31.39 48.2977 31.4159 48.2709 31.4242C47.9271 31.5326 47.8039 31.7153 47.9013 31.9721C47.9561 32.1157 48.0716 32.2524 48.2478 32.3824C48.4086 32.5019 48.582 32.5989 48.768 32.6735C48.9694 32.7542 49.1345 32.76 49.2633 32.691C49.4419 32.5949 49.5017 32.4003 49.4425 32.107C49.437 32.0775 49.4518 32.0488 49.4776 32.0414L49.8048 31.9481C49.8297 31.9407 49.8574 31.9564 49.8694 31.9842C49.9945 32.2922 49.9615 32.5863 49.7706 32.8666C49.5211 33.2313 49.1743 33.3508 48.7301 33.2251C48.4073 33.1333 48.0919 32.9559 47.7839 32.6929Z"/>
        <path d="M48.9848 33.9035L46.9584 32.4898C46.9324 32.4717 46.8967 32.4781 46.8786 32.504L46.6375 32.8496C46.6194 32.8755 46.6258 32.9113 46.6517 32.9294L48.6782 34.343C48.7041 34.3611 48.7399 34.3548 48.758 34.3288L48.999 33.9833C49.0171 33.9573 49.0108 33.9216 48.9848 33.9035Z"/>
        <path d="M47.3613 34.9087L46.2525 33.4811C46.2321 33.4562 46.2303 33.4238 46.246 33.4044L46.5417 33.0496C46.5611 33.0265 46.598 33.0302 46.6175 33.057L48.0802 35.1268C48.0968 35.1508 48.0987 35.1813 48.0857 35.2063C48.0075 35.3541 47.9049 35.4825 47.778 35.5916C47.7568 35.6101 47.7263 35.6156 47.7004 35.6045L45.3303 34.6463C45.3063 34.6371 45.297 34.6075 45.3118 34.5881L45.6251 34.1926C45.6417 34.1713 45.674 34.1667 45.7017 34.1815C46.2457 34.463 46.7942 34.7119 47.3474 34.9281C47.3758 34.9392 47.3804 34.9327 47.3613 34.9087Z"/>
        <path d="M10.7377 34.1369L8.81515 35.7501C8.79913 35.7635 8.79704 35.7874 8.81048 35.8034L9.10508 36.1545C9.11853 36.1706 9.14243 36.1726 9.15846 36.1592L11.081 34.546C11.097 34.5326 11.0991 34.5087 11.0856 34.4926L10.791 34.1416C10.7776 34.1255 10.7537 34.1234 10.7377 34.1369Z"/>
        <path d="M11.0762 36.8538L12.1868 35.7976C12.2099 35.7754 12.2423 35.7727 12.2598 35.7902L12.5204 36.0499C12.5454 36.0739 12.5426 36.1164 12.5149 36.1432L10.7518 37.8332C10.7223 37.861 10.6761 37.8591 10.6483 37.8295L10.2824 37.4331C10.263 37.4128 10.2575 37.3832 10.2686 37.3574C10.4823 36.8522 10.7106 36.3539 10.9533 35.8623C10.9594 35.85 10.9625 35.8386 10.9625 35.8281C10.9625 35.7905 10.9453 35.7878 10.9108 35.8198C10.575 36.1303 10.2267 36.4657 9.86569 36.8261C9.83242 36.8602 9.77883 36.8649 9.7391 36.8381C9.54752 36.7087 9.47298 36.5932 9.51548 36.4916C9.52164 36.4774 9.59526 36.4028 9.73632 36.2679C10.2458 35.7813 10.7574 35.2949 11.2711 34.8089C11.2933 34.7886 11.3275 34.7886 11.3469 34.8108L11.7276 35.2266C11.7516 35.2524 11.7562 35.2922 11.7405 35.3282L11.0595 36.8436C11.0454 36.8744 11.0509 36.8778 11.0762 36.8538Z"/>
        <path d="M45.79 36.5775L46.3795 37.1328C46.3989 37.1504 46.3999 37.18 46.3823 37.1994L46.0894 37.5172C46.0672 37.5413 46.0303 37.5422 46.0062 37.52L44.2062 35.829C44.185 35.8087 44.1831 35.7754 44.2035 35.7533C44.323 35.6202 44.4456 35.4862 44.5712 35.3513C44.7388 35.1721 44.8768 35.0566 44.9852 35.0048C45.2821 34.8637 45.5796 34.9287 45.8778 35.1998C46.1088 35.4098 46.1972 35.6488 46.143 35.9168C46.1374 35.9427 46.1522 35.9676 46.1763 35.975L47.1622 36.2827C47.1853 36.2901 47.1945 36.3169 47.1798 36.3336L46.8268 36.717C46.8083 36.7364 46.7769 36.7429 46.7473 36.7327C46.3549 36.604 46.0999 36.5125 45.9822 36.4583C45.883 36.4127 45.8137 36.4278 45.7743 36.5036C45.7614 36.5267 45.7678 36.5572 45.79 36.5775ZM45.1903 36.0138C45.2488 36.0724 45.3064 36.13 45.3631 36.1866C45.3844 36.2079 45.4195 36.207 45.4398 36.1839C45.7016 35.8913 45.6887 35.663 45.401 35.4992C45.3326 35.4603 45.2504 35.4567 45.1792 35.489C44.9051 35.6128 44.8457 35.7369 45.0009 35.8614C45.1229 35.9581 45.186 36.0089 45.1903 36.0138Z"/>
        <path d="M43.7092 36.9259L43.9984 37.2493C44.0307 37.2853 44.0871 37.2881 44.1231 37.2548L44.5907 36.8288C44.611 36.8104 44.6406 36.8104 44.6591 36.8288L44.9085 37.0756C44.9353 37.1024 44.9335 37.1467 44.9039 37.1744L44.4345 37.6013C44.3976 37.6346 44.3976 37.6947 44.4345 37.7344L44.7145 38.031C44.7515 38.0707 44.8115 38.0744 44.8503 38.0393L45.4177 37.5256C45.4445 37.5015 45.4861 37.5034 45.5101 37.5302L45.7226 37.7658C45.7494 37.7954 45.7466 37.8407 45.7171 37.8674L44.7293 38.7573C44.7108 38.7748 44.6803 38.773 44.6618 38.7527L43.0143 36.9268C42.9967 36.9074 42.9986 36.8769 43.018 36.8593L43.9577 35.9834C43.9919 35.951 44.0483 35.9547 44.0815 35.9926L44.2682 36.2024C44.3042 36.243 44.3042 36.3031 44.2682 36.3373L43.711 36.8593C43.6925 36.8769 43.6916 36.9065 43.7092 36.9259Z"/>
        <path d="M13.1243 37.3001L11.8168 38.7629C11.7845 38.7989 11.729 38.8026 11.693 38.7702L11.4195 38.5282C11.3816 38.4949 11.377 38.4376 11.4103 38.3997L12.7159 36.9268C12.7335 36.9065 12.7325 36.876 12.7131 36.8584L12.4064 36.5868C12.362 36.547 12.3528 36.4851 12.386 36.4509L12.63 36.2042C12.6475 36.1867 12.6808 36.1894 12.7048 36.2116L13.8432 37.2299C13.8663 37.2511 13.8719 37.2826 13.8552 37.302L13.6141 37.5801C13.5983 37.5977 13.5669 37.5967 13.542 37.5764L13.1927 37.2946C13.1724 37.2779 13.1428 37.2807 13.1243 37.3001Z"/>
        <path d="M31.0181 36.195C31.3279 36.2264 31.457 36.3875 31.4053 36.6782C31.3837 36.7984 31.3178 36.8809 31.2075 36.9259C31.1502 36.9493 31.0532 36.961 30.9164 36.961C30.5499 36.961 30.1834 36.961 29.8169 36.961C29.6733 36.961 29.5643 36.9206 29.4897 36.8399C29.4189 36.7636 29.3878 36.6641 29.3964 36.5415C29.41 36.3598 29.5206 36.2455 29.7281 36.1987L31.0181 36.195ZM30.9607 36.5539C30.9608 36.5424 30.9516 36.5332 30.9407 36.5334L29.8486 36.52C29.8372 36.5202 29.8279 36.5286 29.828 36.5401C29.8279 36.5517 29.8372 36.5609 29.8481 36.5607L30.9402 36.574C30.9516 36.5738 30.9608 36.5655 30.9607 36.5539Z"/>
        <path d="M43.0288 39.8531C42.9783 39.8106 42.9536 39.7629 42.9549 39.7099C42.9561 39.6711 42.953 39.6412 42.9456 39.6203C42.8933 39.4681 42.9321 39.3881 43.0621 39.38C43.184 39.3727 43.2549 39.3656 43.2746 39.3588C43.3972 39.3151 43.4945 39.2411 43.5666 39.137C43.6263 39.0495 43.6387 38.9652 43.6035 38.8838C43.5746 38.8167 43.5241 38.7693 43.452 38.7415C43.4027 38.7218 43.338 38.7212 43.258 38.7397C43.0762 38.7816 42.893 38.8121 42.7082 38.8312C42.4513 38.857 42.2424 38.7736 42.0817 38.5808C41.8186 38.2641 41.8143 37.9413 42.0687 37.6124C42.2597 37.366 42.5298 37.2237 42.8791 37.1855C42.9059 37.1827 42.9309 37.204 42.9336 37.2326L42.9724 37.5847C42.977 37.6216 42.9484 37.6549 42.9124 37.654C42.73 37.6515 42.5893 37.7128 42.4901 37.8378C42.4137 37.9346 42.3968 38.0334 42.4393 38.1345C42.4935 38.2626 42.6154 38.3032 42.8052 38.2564C42.9512 38.2201 43.0987 38.1942 43.2478 38.1788C43.419 38.1603 43.5644 38.176 43.6839 38.2259C43.9038 38.3171 44.0483 38.4739 44.1173 38.6963C44.1764 38.8872 44.1567 39.0804 44.0582 39.2756C43.874 39.6422 43.549 39.8408 43.0833 39.8716C43.063 39.8725 43.0436 39.8661 43.0288 39.8531Z"/>
        <path d="M13.1782 39.2442C13.1422 39.2923 13.1459 39.356 13.1866 39.3884L13.7973 39.8652C13.8204 39.8837 13.8269 39.9151 13.8112 39.9363L13.6135 40.2163C13.5913 40.2486 13.5432 40.2523 13.5081 40.2255L12.4464 39.4106C12.4298 39.3976 12.427 39.3745 12.439 39.3579L13.947 37.386C13.9692 37.3574 14.0108 37.3528 14.0394 37.3749L15.0669 38.1511C15.1104 38.1835 15.1141 38.2491 15.0762 38.2934L14.8757 38.5244C14.8517 38.5531 14.811 38.5595 14.7842 38.5392L14.1577 38.0689C14.1365 38.0522 14.106 38.0559 14.0903 38.0772L13.8112 38.4477C13.7955 38.4681 13.7992 38.4985 13.8204 38.5152L14.3434 38.9264C14.3665 38.9439 14.373 38.9744 14.3582 38.9947L14.142 39.2793C14.1198 39.3089 14.0755 39.3126 14.0431 39.2877L13.5201 38.8931C13.4943 38.8737 13.4545 38.8829 13.4305 38.9134L13.1782 39.2442Z"/>
        <path d="M41.4542 40.0629C41.3661 40.0697 41.2869 40.1033 41.2167 40.1637C41.1955 40.1812 41.1659 40.1821 41.1474 40.1655C41.0507 40.0793 40.9759 39.9758 40.9229 39.855C40.9118 39.8292 40.922 39.7987 40.946 39.783L41.6076 39.3598C41.6344 39.3431 41.6686 39.3496 41.6852 39.3745L42.2904 40.318C42.3061 40.3429 42.3098 40.3734 42.3006 40.4011C42.2347 40.5976 42.1026 40.7772 41.9042 40.9398C41.6535 41.1468 41.3954 41.2306 41.1299 41.1912C40.905 41.1579 40.6925 41.0316 40.4923 40.8123C40.3173 40.6201 40.1683 40.3854 40.0451 40.1082C39.949 39.8926 39.908 39.6847 39.9222 39.4845C39.9369 39.2794 40.0164 39.0949 40.1606 38.931C40.4082 38.6495 40.7464 38.5491 41.1751 38.6298C41.201 38.6344 41.2186 38.6584 41.214 38.6834L41.1437 39.0364C41.1382 39.0613 41.1132 39.0789 41.0846 39.0779C40.5012 39.0514 40.3124 39.3219 40.5182 39.8892C40.6038 40.1245 40.759 40.3377 40.9839 40.5287C41.1071 40.6334 41.225 40.6845 41.3378 40.682C41.4881 40.679 41.6125 40.6066 41.7111 40.4649C41.7259 40.4436 41.7259 40.4141 41.7102 40.3891L41.5226 40.1018C41.5059 40.0759 41.4801 40.0611 41.4542 40.0629Z"/>
        <path d="M15.3303 40.2542L15.1566 40.1368C15.1316 40.1202 15.1252 40.086 15.1418 40.0592L15.3312 39.7506C15.3442 39.7293 15.3765 39.7247 15.4014 39.7413L16.0714 40.1766C16.0935 40.1913 16.1 40.2218 16.0852 40.244L15.4689 41.1911C15.4532 41.2152 15.4273 41.2299 15.3977 41.2327C15.1711 41.2493 14.9558 41.2062 14.7519 41.1034C14.1851 40.8175 14.0296 40.3706 14.2852 39.7626C14.4448 39.3825 14.6708 39.0723 14.9635 38.8321C15.1988 38.6393 15.476 38.5777 15.7951 38.6473C16.1986 38.736 16.4477 39.004 16.5426 39.4512C16.5482 39.478 16.5343 39.5057 16.5093 39.5177C16.3929 39.5726 16.2703 39.5987 16.1416 39.5963C16.1148 39.5953 16.0908 39.5769 16.0815 39.5501C15.9306 39.0911 15.6485 39.004 15.2351 39.2886C15.0836 39.3927 14.9296 39.616 14.7731 39.9585C14.6166 40.2985 14.6933 40.5431 15.0032 40.6922C15.0559 40.7171 15.1196 40.7051 15.1593 40.6626C15.2807 40.5338 15.3503 40.4183 15.3682 40.3161C15.3719 40.2967 15.3571 40.2717 15.3303 40.2542Z"/>
        <path d="M17.2557 41.3556L17.2086 42.3674C17.2077 42.3924 17.1818 42.409 17.1596 42.3979L16.7096 42.1706C16.6865 42.1586 16.6736 42.13 16.6754 42.0967L16.7355 41.217C16.7374 41.1865 16.7272 41.157 16.7069 41.1366C16.6348 41.0615 16.5738 41.0781 16.5239 41.1865C16.4235 41.4052 16.3169 41.6211 16.2042 41.8343C16.1894 41.8602 16.1598 41.8722 16.1377 41.8602L15.7459 41.6495C15.7237 41.6375 15.7163 41.607 15.7302 41.5811L16.8963 39.4041C16.9083 39.381 16.9369 39.3718 16.961 39.3829C17.232 39.5165 17.4954 39.6678 17.751 39.8365C18.0331 40.0238 18.1336 40.2832 18.0522 40.6146C17.9518 41.0205 17.7017 41.2506 17.3019 41.3048C17.2761 41.3076 17.2567 41.3298 17.2557 41.3556ZM16.8732 40.694C17.1578 40.8628 17.3564 40.8348 17.4692 40.61C17.5271 40.4948 17.5379 40.3851 17.5015 40.281C17.459 40.1559 17.3614 40.078 17.2086 40.0472C17.1809 40.0417 17.1532 40.0546 17.1402 40.0796L16.8519 40.6275C16.8399 40.6506 16.8492 40.6802 16.8732 40.694Z"/>
        <path d="M39.6499 41.0479L38.9856 39.7524C38.9717 39.7256 38.9754 39.6942 38.993 39.672C39.0798 39.563 39.1935 39.4999 39.3339 39.4826C39.3617 39.4789 39.3894 39.4937 39.4023 39.5196L40.5093 41.6947C40.5222 41.7206 40.5148 41.7511 40.4927 41.7622L39.9623 42.0228C39.9392 42.0339 39.9078 42.0274 39.8837 42.0071L38.6631 40.9204C38.5725 40.8397 38.5556 40.8536 38.6123 40.962L39.3145 42.3027C39.3265 42.3268 39.321 42.3563 39.2997 42.3739C39.1956 42.4571 39.078 42.5119 38.9468 42.5384C38.92 42.543 38.8932 42.5301 38.8802 42.5051L37.7465 40.3235C37.7344 40.2995 37.7437 40.2708 37.7677 40.2597L38.2972 40.001C38.3221 39.989 38.3526 39.9927 38.3748 40.0112L39.5964 41.0913C39.6888 41.1733 39.7066 41.1588 39.6499 41.0479Z"/>
        <path d="M37.411 40.4139L36.9772 40.6025C36.9617 40.6092 36.9547 40.6272 36.9614 40.6426L37.9665 42.9543C37.9732 42.9698 37.9912 42.9768 38.0066 42.9701L38.4405 42.7815C38.4559 42.7748 38.463 42.7568 38.4563 42.7414L37.4512 40.4297C37.4445 40.4142 37.4265 40.4072 37.411 40.4139Z"/>
        <path d="M17.3679 42.5014C17.3458 42.4913 17.3402 42.4608 17.3568 42.4404L18.9369 40.488C18.972 40.4445 19.0284 40.4279 19.0737 40.4482L19.4932 40.6368C19.5172 40.6478 19.5301 40.6765 19.5264 40.7088L19.1993 43.2333C19.1956 43.2665 19.1615 43.2859 19.1319 43.273L18.7004 43.0817C18.6745 43.0706 18.6588 43.0429 18.6625 43.0143L18.7142 42.6252C18.7179 42.5948 18.705 42.567 18.6828 42.5569L18.1774 42.3397C18.1543 42.3296 18.1256 42.3397 18.1081 42.3637L17.8724 42.6825C17.854 42.7066 17.8225 42.7158 17.7976 42.7038L17.3679 42.5014ZM18.4814 41.9424L18.7503 42.0792C18.7872 42.0976 18.8316 42.0773 18.839 42.0385L18.9711 41.3104C18.9927 41.1927 18.969 41.1819 18.9 41.278L18.4647 41.8842C18.4509 41.9036 18.4592 41.9304 18.4814 41.9424Z"/>
        <path d="M34.841 42.9958L34.9787 43.4957C34.9852 43.5206 35.0138 43.5345 35.0416 43.5262L35.8011 43.3035C35.8325 43.2942 35.863 43.3063 35.8695 43.3303L35.9582 43.6851C35.9647 43.7101 35.9462 43.7369 35.9175 43.7461L34.6904 44.1222C34.6405 44.1379 34.5869 44.1083 34.5721 44.0575L33.8884 41.7132C33.8791 41.6818 33.8976 41.6476 33.929 41.6393C34.8974 41.3831 35.8436 41.068 36.7676 40.694C36.7935 40.683 36.8221 40.6931 36.8369 40.7162C36.9133 40.8388 36.9577 40.9555 36.97 41.0664C36.9728 41.096 36.9571 41.1237 36.9321 41.133L36.5394 41.2808C36.496 41.2974 36.4729 41.3427 36.4877 41.3834L37.165 43.2397C37.1751 43.2675 37.164 43.297 37.14 43.3072L36.751 43.4587C36.7279 43.468 36.7011 43.4532 36.6909 43.4264L35.973 41.5608C35.9637 41.5368 35.9369 41.5238 35.912 41.5321L34.5869 41.9526C34.5592 41.9609 34.5426 41.9886 34.55 42.0135L34.6784 42.458C34.6858 42.483 34.7144 42.4968 34.7422 42.4894L35.3862 42.3111C35.4149 42.3037 35.4426 42.3166 35.4481 42.3397L35.5368 42.7066C35.5433 42.7324 35.5257 42.7592 35.4971 42.7666L34.8798 42.9385C34.8521 42.9459 34.8346 42.9718 34.841 42.9958Z"/>
        <path d="M19.7159 43.4578C19.691 43.4495 19.6799 43.4181 19.69 43.3885L20.3332 41.5053C20.3415 41.4813 20.3276 41.4536 20.3008 41.4434L19.8619 41.2725C19.8388 41.2632 19.8268 41.2355 19.8351 41.2078L19.9294 40.9084C19.9432 40.8631 19.9913 40.8391 20.0347 40.8539L21.4752 41.3621C21.502 41.3723 21.5187 41.3972 21.5168 41.4249C21.5101 41.5494 21.4746 41.6655 21.4106 41.7733C21.3958 41.7983 21.3662 41.8093 21.3403 41.8001L20.9014 41.6458C20.8793 41.6384 20.8552 41.6486 20.8478 41.6689L20.1936 43.5641C20.1835 43.5936 20.1557 43.6112 20.1326 43.6029L19.7159 43.4578Z"/>
        <path d="M21.6896 43.5983L22.4251 43.8053C22.4704 43.8173 22.4972 43.8672 22.4861 43.9171L22.4242 44.1961C22.4149 44.2386 22.3761 44.2654 22.3391 44.2553L21.0427 43.8995C21.0169 43.893 21.0021 43.8663 21.0095 43.8404L21.6554 41.4693C21.6628 41.4435 21.6886 41.4287 21.7136 41.4351L22.9647 41.7696C22.9952 41.777 23.0146 41.8038 23.0091 41.8297L22.9296 42.1864C22.924 42.2113 22.8954 42.2261 22.8658 42.2178L22.1054 42.0145C22.0767 42.0071 22.049 42.021 22.0425 42.045L21.9261 42.5218C21.9196 42.5467 21.939 42.5726 21.9686 42.58L22.5443 42.7214C22.6034 42.7362 22.6376 42.8055 22.621 42.8785L22.5637 43.1215C22.5507 43.1778 22.4981 43.213 22.4491 43.1982L21.8411 43.0217C21.8124 43.0134 21.7838 43.0282 21.7764 43.055L21.6489 43.5401C21.6424 43.5641 21.6609 43.59 21.6896 43.5983Z"/>
        <path d="M32.7549 42.8036L33.1346 41.8851C33.1467 41.8565 33.1688 41.8352 33.1947 41.8297L33.714 41.7114C33.7602 41.7009 33.7738 41.7179 33.7547 41.7622L33.2622 42.8905C33.2511 42.9154 33.2557 42.9441 33.2733 42.9644L34.2952 44.1628C34.3156 44.1859 34.3045 44.222 34.2749 44.2285L33.75 44.3393C33.7233 44.3458 33.6937 44.3356 33.6752 44.3125C33.4812 44.0729 33.2908 43.8302 33.1042 43.5844C33.0222 43.4772 32.9637 43.4803 32.9286 43.5936C32.9169 43.6312 32.9157 43.6762 32.9249 43.7286C32.9656 43.9589 33.0102 44.1887 33.0589 44.4179C33.0653 44.4465 33.0496 44.4733 33.0256 44.4789L32.6089 44.5703C32.583 44.5759 32.5581 44.5574 32.5516 44.5297L32.0489 42.1171C32.0434 42.0912 32.06 42.0653 32.085 42.0598L32.4841 41.9757C32.5146 41.9692 32.5442 41.9895 32.5507 42.021L32.7253 42.8008C32.7327 42.8329 32.7426 42.8338 32.7549 42.8036Z"/>
        <path d="M22.8203 44.368C22.7907 44.3615 22.7713 44.3328 22.7768 44.3033L23.2296 41.887C23.2342 41.8611 23.2582 41.8435 23.285 41.8463C23.4403 41.8648 23.594 41.8897 23.7461 41.9211C24.0104 41.9766 24.1616 42.0105 24.1998 42.0228C24.4234 42.0942 24.5895 42.2291 24.6979 42.4275C24.7798 42.5772 24.8205 42.7743 24.8198 43.0189C24.8192 43.4889 24.6966 43.8933 24.4521 44.2321C24.3517 44.3707 24.2057 44.4622 24.0141 44.5066C23.8878 44.5361 23.7221 44.5346 23.517 44.5019C23.294 44.4668 23.0617 44.4222 22.8203 44.368ZM23.4347 44.0002C23.7477 44.0797 23.9636 44.0261 24.0825 43.8394C24.1749 43.6934 24.2442 43.4575 24.2904 43.1316C24.3551 42.6696 24.1662 42.425 23.7239 42.3979C23.6972 42.3961 23.6731 42.4136 23.6676 42.4404L23.3821 43.9198C23.3756 43.9558 23.3987 43.991 23.4347 44.0002Z"/>
        <path d="M31.6444 43.7443L32.1896 44.5546C32.2228 44.6045 32.1896 44.6729 32.1295 44.6766L31.6786 44.708C31.6342 44.7117 31.5917 44.6886 31.5705 44.6507C31.4368 44.4142 31.3013 44.1887 31.1639 43.9744C31.1368 43.9325 31.1078 43.9017 31.077 43.8819C30.9785 43.8191 30.9378 43.8588 30.9551 44.0011C30.9982 44.3554 31.0244 44.6018 31.0336 44.7404C31.0355 44.7699 31.017 44.7949 30.992 44.7977L30.5901 44.8383C30.5577 44.842 30.5282 44.8161 30.5245 44.781L30.2288 42.3471C30.226 42.3203 30.2454 42.2954 30.2731 42.2917C30.5442 42.2566 30.8162 42.2304 31.089 42.2132C31.5363 42.1848 31.8055 42.3977 31.8966 42.8517C31.9656 43.1966 31.8849 43.4717 31.6545 43.6768C31.6342 43.6944 31.6305 43.723 31.6444 43.7443ZM31.151 42.6807C31.0561 42.6536 30.9594 42.6539 30.8608 42.6816C30.8322 42.69 30.8146 42.7158 30.8174 42.7426L30.8876 43.3663C30.8904 43.3931 30.9144 43.4135 30.943 43.4153C31.2886 43.4356 31.4291 43.2693 31.3644 42.9163C31.3422 42.7938 31.2711 42.7152 31.151 42.6807Z"/>
        <path d="M27.441 43.3866L26.9836 44.8577C26.9734 44.8891 26.9494 44.9103 26.9244 44.9085L26.5068 44.8798C26.4818 44.878 26.4596 44.854 26.4532 44.8207C26.3608 44.3439 26.2819 43.865 26.2166 43.3839C26.2148 43.3666 26.2114 43.3506 26.2065 43.3358C26.172 43.2255 26.1513 43.2412 26.1445 43.3829C26.1273 43.7371 26.1064 44.091 26.0817 44.4446C26.0811 44.4502 26.082 44.5121 26.0845 44.6304C26.0888 44.8564 25.9299 44.9147 25.6077 44.805C25.5818 44.7967 25.5652 44.7717 25.567 44.744C25.6169 44.0196 25.6613 43.2942 25.7001 42.5679C25.7075 42.4281 25.7121 42.3557 25.714 42.3508C25.7454 42.28 25.8362 42.259 25.9865 42.288C26.0999 42.3095 26.2126 42.3077 26.3247 42.2824C26.4301 42.259 26.4864 42.3037 26.4938 42.4164C26.5012 42.5267 26.5055 42.5855 26.5068 42.5929C26.5881 43.0635 26.6608 43.5419 26.7248 44.0279C26.7427 44.1646 26.771 44.1662 26.8098 44.0325L27.2682 42.4395C27.2756 42.4127 27.2996 42.3933 27.3282 42.3896C27.5408 42.3619 27.753 42.3683 27.9649 42.409C27.9917 42.4146 28.0102 42.4376 28.0083 42.4644L27.8632 44.914C27.8614 44.9427 27.8392 44.9658 27.8133 44.9639L27.4188 44.9353C27.3948 44.9334 27.3772 44.9085 27.379 44.8789L27.4548 43.3894C27.4567 43.3531 27.452 43.3521 27.441 43.3866Z"/>
        <path d="M29.4655 44.4465L28.8991 44.4668C28.8741 44.4677 28.851 44.4899 28.8455 44.5204L28.7716 44.8909C28.7651 44.9196 28.7429 44.9408 28.7152 44.9427L28.2523 44.9713C28.2245 44.9732 28.2042 44.9473 28.2107 44.9196L28.8178 42.4173C28.8242 42.3914 28.8483 42.373 28.876 42.3711L29.3537 42.3434C29.3814 42.3416 29.4064 42.3582 29.4147 42.3831L30.214 44.8346C30.2223 44.8614 30.2066 44.8891 30.1826 44.8891L29.7104 44.8965C29.6734 44.8974 29.6401 44.8715 29.6281 44.8327L29.5209 44.4964C29.5108 44.4659 29.4886 44.4456 29.4655 44.4465ZM29.0922 43.2406L28.9693 43.9152C28.9638 43.941 28.9813 43.966 29.0072 43.9725C29.115 43.9977 29.2222 43.9962 29.3288 43.9678C29.3537 43.9614 29.3676 43.9355 29.3611 43.9105L29.1818 43.2388C29.1467 43.1076 29.1168 43.1082 29.0922 43.2406Z"/>
    </symbol>
</svg>